<?xml version="1.0" encoding="UTF-8"?>
<svg id="Layer_1" data-name="Layer 1" xmlns="http://www.w3.org/2000/svg" viewBox="0 0 325.26 383.26">
  <path d="M173.88,0c6.91,1.44,13.95,2.47,20.72,4.4,27.05,7.72,46.8,24.75,60.86,48.74,9.22,15.73,13.64,32.76,13.51,51.03-.01,1.64,1.66,3.24,2.36,4.94,2.23,5.43,6.98,6,11.98,7.26,12.42,3.13,20.92,13.5,22.25,25.77,1.59,14.7-4.38,27.28-16.41,33.24-3.7,1.83-8.1,2.2-12.13,3.42-1.11,.34-2.14,1.24-2.95,2.12-.83,.9-1.08,2.56-2.03,3.06-4.51,2.4-3.79,6.5-3.74,10.42,.14,11.93-2.14,23.11-10.51,32.22-7.49,8.15-17.18,12.78-27.54,15.86-12.76,3.8-25.68,7.09-38.56,10.47-2.63,.69-4.5,1.56-5.86,4.31-3.3,6.68-11.8,8.57-18.41,4.52-6.1-3.74-7.86-12.23-3.82-18.44,3.97-6.1,12.52-7.7,18.46-3.57,1.11,.77,2.75,1.69,3.84,1.41,15.76-4.15,31.61-8.07,47.16-12.91,13.78-4.29,20.43-14.74,21.73-28.84,.21-2.23,.48-4.46,.63-6.7,.25-3.6,.08-6.76-2.88-9.81-1.88-1.94-2.59-5.67-2.64-8.61-.34-17.21-.38-34.43-.4-51.64,0-5.02,.42-9.99,4.41-13.85,.5-.48,.36-1.83,.21-2.72-6.89-39.74-36.25-69.39-75.96-75.94-37.11-6.12-74.46,8.8-94.36,41.63-6.54,10.78-10.64,22.48-12.76,34.87-.14,.82,.18,2.03,.75,2.59,3.1,3.06,3.9,6.99,3.91,10.99,.04,18.46,.02,36.92-.25,55.38-.1,7.02-3.91,11.13-10.56,12.6-5.85,1.29-10.34-1.33-13.83-7.58-.59-1.06-2.45-1.77-3.82-2-13.9-2.35-22.98-10.14-26.92-23.71-5.18-17.81,8.03-37.58,26.45-39.53,2.44-.26,4.37-.61,5.02-3.31,.11-.46,.39-1.03,.77-1.26,4.71-2.89,3.64-7.55,3.88-11.92,2.27-41.82,23.67-70.59,60.77-88.43,11.54-5.55,23.84-8.71,36.63-9.86,.71-.06,1.4-.42,2.09-.63,5.99,0,11.98,0,17.96,0Z"/>
  <path d="M162.65,383.25c-46.15,0-92.31,.01-138.46,0-12.13,0-21.05-6.37-23.53-17.28-.78-3.4-.97-7.4,.04-10.67,4.93-16.05,9.34-32.37,18.12-46.91,18.61-30.82,45.69-49.35,81.21-55.47,.61-.11,1.22-.25,1.83-.36,6.48-1.23,12.23-1.08,18.14,3.37,9.89,7.45,21.61,11.14,33.91,12.8,1.37,.18,2.83,.9,3.91,1.78,13.31,10.87,32.26,6.99,40.11-8.17,.8-1.54,2.4-2.67,3.66-3.96,.25-.26,.69-.33,.95-.58,7.81-7.63,17.01-6.43,26.44-4.33,43.44,9.69,72.63,35.51,87.7,77.33,2.45,6.79,4.67,13.67,6.95,20.52,5.83,17.54-4.47,31.93-22.9,31.93-46.03,.02-92.06,0-138.09,0Z"/>
  <path d="M194.03,233.05c-13.33-13.16-34.96-11.12-44.12,8.8-10.48-2.78-19.33-8.43-27.04-15.86-18.19-17.52-28.54-39.38-34.21-63.6-5.41-23.11-5.62-46.14,2.18-68.93,10.72-31.32,41.17-52.31,74.23-50.95,34.87,1.44,63.56,23.77,71.46,58.05,10.58,45.94-.44,87.08-31.31,122.79-1.86,2.16-4.12,3.98-6.28,5.87-1.49,1.31-3.12,2.45-4.91,3.83Z"/>
</svg>