<?xml version="1.0" encoding="UTF-8"?><svg id="Capa_1" xmlns="http://www.w3.org/2000/svg" viewBox="0 0 348.44 135.09"><defs><style>.cls-1{fill:#fff;stroke-width:0px;}</style></defs><path class="cls-1" d="M0,86.01c.77-3.29,1.45-6.6,2.32-9.87,2.91-10.84,10.05-17.96,19.94-22.72,15.04-7.24,31.12-11.04,47.35-14.31,4.44-.89,8.96-1.37,13.4-2.29,2.07-.43,4.1-1.26,6.01-2.19,24.07-11.74,48.57-22.35,74.79-28.4C191.02-.05,218.67-1.08,246.34.93c20.32,1.47,40.53,4.47,60.78,6.91,5,.6,8.71,2.98,9.68,8.48.2,1.11,1.21,2.14,2.02,3.05,5.51,6.18,11.01,12.38,16.65,18.44,3.77,4.05,5.57,8.72,5.46,14.2-.04,1.93.15,3.87-.03,5.78-.51,5.41.13,10.19,5.13,13.66,1.34.93,2.29,3.28,2.37,5.02.58,13.68-4.02,24.9-16.21,32.2-2.82,1.69-5.72,3.24-8.64,4.74-.94.48-2.06.6-3.54,1.01,1.92-12.25-1.32-22.5-9.87-30.75-6.56-6.34-14.66-9.42-23.81-9.07-16.87.64-34.34,15.05-31.58,39.14H88.42c1.45-12.93-2.15-23.76-12.26-31.92-6.43-5.19-13.88-7.62-22.11-7.21-16.02.81-33.16,14.46-31.25,37.53-10.13.21-19.53-7.07-22.11-17.1-.19-.75-.46-1.49-.69-2.24,0-2.27,0-4.54,0-6.81ZM224.24,10.6c-1.51-.07-2.62-.14-3.73-.17-15.45-.37-30.84.43-46.1,2.83-17.49,2.76-34.64,6.85-50.93,14.05-1.83.81-2.5,2.02-3.34,3.77-2.9,6.06.44,11.59.7,17.57,2-.1,3.8-.15,5.59-.29,22.38-1.76,44.75-3.53,67.13-5.29,9.15-.72,18.31-1.41,27.46-2.17,1.49-.12,3.28.16,3.26-2.36-.07-9.18-.03-18.36-.03-27.95ZM235.77,39.55c1.18,0,1.97.06,2.75,0,12.75-1.03,25.48-2.4,38.24-2.97,5.47-.24,9.24-1.89,12.51-6.29,4.51-6.08,3.44-10.11-3.95-11.53-11.32-2.17-22.67-4.21-34.05-6.07-5.07-.83-10.23-1.07-15.51-1.59v28.45Z"/><path class="cls-1" d="M287.47,135.09c-14.94,0-27.41-12.34-27.44-27.16-.03-15.28,12.46-27.9,27.55-27.83,15.15.07,27.56,12.68,27.5,27.93-.06,14.75-12.62,27.06-27.6,27.07ZM270.03,110.03c1.4,3.16,2.43,5.49,3.72,8.42,1.94-2.09,3.42-3.5,4.67-5.09,1.34-1.71.69-3.03-1.34-3.28-1.98-.24-4.01-.05-7.04-.05ZM304.94,110.03c-2.92,0-4.96-.19-6.94.05-2.09.26-2.66,1.6-1.31,3.31,1.3,1.66,2.78,3.17,4.65,5.27,1.33-3.18,2.3-5.52,3.6-8.63ZM285.18,90.22c-3.03,1.28-5.4,2.29-8.91,3.77,2.29,1.88,3.78,3.25,5.42,4.4.61.43,1.72.71,2.3.43.59-.28,1.08-1.32,1.14-2.06.16-1.88.05-3.79.05-6.54ZM289.95,90.28c0,2.84-.15,4.89.04,6.89.21,2.2,1.56,2.57,3.26,1.38,1.74-1.22,3.38-2.59,5.06-3.9-.24-.41-.47-.81-.71-1.22-2.35-.97-4.69-1.94-7.66-3.16ZM285.17,125.05c0-2.78.12-4.82-.03-6.83-.16-2.12-1.46-2.78-3.15-1.51-1.68,1.25-3.11,2.85-5.2,4.82,3.1,1.3,5.42,2.28,8.39,3.52ZM289.95,125.04c2.92-1.26,5.29-2.28,8.51-3.67-2.2-1.93-3.67-3.33-5.26-4.58-1.72-1.36-2.98-.77-3.2,1.3-.22,1.99-.05,4.03-.05,6.94ZM273.65,96.57c-1.35,3.46-2.25,5.79-3.37,8.66,2.76,0,4.79.18,6.78-.05,2.11-.25,2.66-1.54,1.27-3.26-1.27-1.58-2.67-3.06-4.69-5.35ZM301.25,96.51c-2.05,2.99-5.22,5.71-4.73,7.32.93,3.05,4.66.9,7.18,1.26.14.02.32-.25.87-.69-.93-2.21-1.91-4.55-3.32-7.89Z"/><path class="cls-1" d="M83.17,107.7c.19,14.78-12.14,27.21-27.18,27.38-15.08.18-27.74-12.22-27.78-27.19-.04-15.14,11.94-27.35,27.24-27.79,14.92-.43,27.51,12.11,27.71,27.59ZM73.04,110.03c-2.72,0-4.74-.12-6.73.07-.71.07-1.59.78-1.92,1.44-.23.46.19,1.46.61,1.98,1.27,1.55,2.68,2.98,4.63,5.11,1.3-3.27,2.25-5.67,3.41-8.59ZM66.62,121.49c-2.13-1.93-3.56-3.34-5.11-4.59-.52-.42-1.53-.8-1.99-.56-.64.33-1.32,1.22-1.38,1.93-.19,1.98-.06,3.98-.06,6.74,2.96-1.22,5.34-2.19,8.55-3.51ZM66.87,93.83c-3.44-1.37-5.86-2.33-8.79-3.51,0,2.72-.12,4.72.03,6.7.16,2.14,1.78,2.78,3.43,1.43,1.56-1.27,3.04-2.63,5.33-4.62ZM44.47,93.9c2.34,1.97,3.84,3.32,5.44,4.56,1.67,1.3,3.05.95,3.31-1.2.25-2.07.05-4.2.05-6.95-2.91,1.18-5.25,2.14-8.8,3.59ZM41.87,118.72c1.91-2.15,3.32-3.6,4.54-5.19.45-.58.71-1.6.53-2.27-.14-.52-1.09-1.12-1.71-1.17-2.07-.15-4.15-.06-6.89-.06,1.21,2.97,2.15,5.3,3.53,8.69ZM38.36,105.23c2.82,0,4.84.12,6.84-.03,2.24-.17,2.59-1.52,1.41-3.21-1.22-1.74-2.62-3.36-3.94-5.03-.38.21-.75.41-1.13.62-.97,2.33-1.94,4.66-3.18,7.66ZM53.29,124.97c0-2.69.09-4.71-.05-6.71-.04-.65-.55-1.66-1.05-1.8-.68-.2-1.72.06-2.31.51-1.6,1.19-3.04,2.59-5.2,4.48,3.39,1.39,5.72,2.34,8.61,3.53ZM70.05,97.7c-.43-.17-.87-.35-1.3-.52-1.28,1.55-2.61,3.07-3.8,4.68-.39.54-.77,1.53-.53,1.98.34.63,1.24,1.26,1.95,1.32,1.99.18,4.01.06,6.63.06-1.11-2.84-2.03-5.19-2.95-7.53Z"/></svg>