<?xml version="1.0" encoding="UTF-8"?><svg id="Capa_1" xmlns="http://www.w3.org/2000/svg" viewBox="0 0 455.81 172.78"><defs><style>.cls-1{fill:#fff;stroke-width:0px;}</style></defs><path class="cls-1" d="M405.98,133.66c-2.38-11.73-5.89-23.03-12.82-32.97-5.41-7.76-12.56-12.86-22.3-13.33-4.86-.24-9.76-.16-14.63,0-16.7.51-28.9,7.9-34.91,23.88-3.36,8.94-6.34,18.05-8.93,27.24-.92,3.27-2.05,4.34-5.38,4.38-63.88.89-127.76,1.9-191.63,2.87-1.3.02-2.61-.16-3.74-.23-.88-15.49-4.97-29.51-12.98-42.3-6.2-9.91-14.98-15.36-26.93-15.09-3.2.07-6.4.02-9.6.08-17.08.36-30,7.16-36.44,23.77-3.34,8.61-6.51,17.29-9.81,26.09-9.6-.23-14.06-7.16-14.99-15.55-1.05-9.42-1.38-19.31.32-28.57,3.72-20.29.16-19.97,24.49-26.62,29.9-8.18,60.74-11.2,91.42-14.94,2.44-.3,5.01-1.22,7.09-2.53,9.15-5.77,18.08-11.87,27.19-17.7C183.25,11.73,217.49.17,255.94.01c54.49-.22,108.81,2.14,163.12,5.95,3.39.24,6.75.78,10.12,1.18l.51,1.3c-2.65,2.53-5.29,5.05-7.59,7.25,6.97,12.38,13.71,24.65,20.76,36.74,4.42,7.58,6.22,15.44,4.28,24.06-.3,1.34-.33,2.75-.77,4.03-1.69,4.9-.55,8.87,2.79,12.91,7.6,9.19,8.21,19.58,4.18,30.55-1.61,4.38-4.42,7.29-8.97,8.2-12.21,2.43-24.44,4.71-37.2,7.15-.58-2.72-.9-4.2-1.2-5.67ZM319.93,12.46c-.21-.8-1.68-1.8-2.56-1.79-24.35.25-48.7.62-73.68.97-.66,14.56-1.28,28.19-1.93,42.59,29.27-1.7,58.16-3.38,87.65-5.09-3.23-12.63-6.27-24.67-9.48-36.67ZM222.79,55.35c2.59-14.08,5.12-27.82,7.64-41.54-19.86-4.14-75.6,25.12-86.91,45.83,26.67-1.44,52.82-2.86,79.27-4.29ZM400.83,24.96c-7.6-8.17-17.12-11.69-28.12-12.11-13.83-.53-27.66-1.37-42.05-2.11.41,1.89.57,3.04.92,4.13,3.28,10.13,6.51,20.29,10,30.35.44,1.25,2.39,2.91,3.56,2.84,23.6-1.22,47.18-2.66,70.77-4.08.24-.01.46-.29,1.66-1.08-5.66-6.07-11.21-12-16.74-17.94Z"/><path class="cls-1" d="M359.48,90.88c22.81.65,40.64,18.84,40.59,41.39-.05,22.3-18.92,40.77-41.38,40.5-22.39-.26-40.77-18.78-40.49-40.79.3-23.07,19.06-41.74,41.28-41.1ZM338.36,148.25c2.91-3.17,5.01-5.3,6.9-7.61.63-.77,1.25-2.26.91-2.95-.48-.98-1.8-2.04-2.85-2.14-2.97-.29-5.98-.1-10.03-.1,1.73,4.35,3.14,7.93,5.08,12.8ZM355.57,157.76c0-4.11.18-7.1-.1-10.04-.1-1.05-1.1-2.38-2.06-2.87-.69-.35-2.19.22-2.96.84-2.31,1.87-4.45,3.96-7.61,6.84,4.78,1.96,8.32,3.42,12.73,5.23ZM350.42,118.2c2.46,2.02,4.87,1.07,5.11-2.13.22-2.95.05-5.93.05-9.98-4.38,1.74-7.98,3.18-13.1,5.22,3.41,2.97,5.62,4.99,7.94,6.89ZM362.72,106.09c0,4.09-.3,7.26.08,10.35.39,3.21,2.45,3.72,4.93,1.79,2.37-1.85,4.62-3.86,8.1-6.8-5.3-2.16-8.79-3.58-13.12-5.34ZM384.97,135.45c-4.08,0-7.18-.14-10.26.08-.93.07-2.34.96-2.55,1.74-.27,1.01.12,2.52.79,3.39,1.81,2.37,3.92,4.53,6.76,7.74,2.05-5.05,3.46-8.53,5.26-12.95ZM380.21,116.9c-.56-.31-1.12-.61-1.69-.92-1.97,2.49-4.06,4.9-5.87,7.49-1.76,2.52-1.24,4.53,2.1,4.79,2.98.23,5.99.05,10.19.05-1.85-4.46-3.3-7.94-4.74-11.41ZM375.54,152.47c-3.22-2.82-5.37-4.9-7.75-6.67-.89-.66-2.43-1.05-3.45-.76-.74.21-1.49,1.71-1.56,2.69-.2,2.99-.07,6-.07,10,4.31-1.76,7.79-3.19,12.83-5.25ZM333.33,128.31c3.91,0,6.91.17,9.88-.09,1.06-.09,2.39-1.03,2.9-1.97.36-.67-.2-2.16-.78-2.95-1.77-2.41-3.75-4.66-5.66-6.98-.65.26-1.29.51-1.94.77-1.37,3.49-2.74,6.99-4.4,11.22Z"/><path class="cls-1" d="M65.48,90.88c22.81.65,40.64,18.84,40.59,41.39-.05,22.3-18.92,40.77-41.38,40.5-22.39-.26-40.77-18.78-40.49-40.79.3-23.07,19.06-41.74,41.28-41.1ZM44.36,148.25c2.91-3.17,5.01-5.3,6.9-7.61.63-.77,1.25-2.26.91-2.95-.48-.98-1.8-2.04-2.85-2.14-2.97-.29-5.98-.1-10.03-.1,1.73,4.35,3.14,7.93,5.08,12.8ZM61.58,157.76c0-4.11.18-7.1-.1-10.04-.1-1.05-1.1-2.38-2.06-2.87-.69-.35-2.19.22-2.96.84-2.31,1.87-4.45,3.96-7.61,6.84,4.78,1.96,8.32,3.42,12.73,5.23ZM56.42,118.2c2.46,2.02,4.87,1.07,5.11-2.13.22-2.95.05-5.93.05-9.98-4.38,1.74-7.98,3.18-13.1,5.22,3.41,2.97,5.62,4.99,7.94,6.89ZM68.73,106.09c0,4.09-.3,7.26.08,10.35.39,3.21,2.45,3.72,4.93,1.79,2.37-1.85,4.62-3.86,8.1-6.8-5.3-2.16-8.79-3.58-13.12-5.34ZM90.97,135.45c-4.08,0-7.18-.14-10.26.08-.93.07-2.34.96-2.55,1.74-.27,1.01.12,2.52.79,3.39,1.81,2.37,3.92,4.53,6.76,7.74,2.05-5.05,3.46-8.53,5.26-12.95ZM86.21,116.9c-.56-.31-1.12-.61-1.69-.92-1.97,2.49-4.06,4.9-5.87,7.49-1.76,2.52-1.24,4.53,2.1,4.79,2.98.23,5.99.05,10.19.05-1.85-4.46-3.3-7.94-4.74-11.41ZM81.54,152.47c-3.22-2.82-5.37-4.9-7.75-6.67-.89-.66-2.43-1.05-3.45-.76-.74.21-1.49,1.71-1.56,2.69-.2,2.99-.07,6-.07,10,4.31-1.76,7.79-3.19,12.83-5.25ZM39.33,128.31c3.91,0,6.91.17,9.88-.09,1.06-.09,2.39-1.03,2.9-1.97.36-.67-.2-2.16-.78-2.95-1.77-2.41-3.75-4.66-5.66-6.98-.65.26-1.29.51-1.94.77-1.37,3.49-2.74,6.99-4.4,11.22Z"/></svg>