<?xml version="1.0" encoding="UTF-8"?><svg id="Capa_1" xmlns="http://www.w3.org/2000/svg" viewBox="0 0 419.22 139.83"><defs><style>.cls-1{fill:#fff;stroke-width:0px;}</style></defs><path class="cls-1" d="M419.22,97c-1.73,2.89-4.38,4.1-7.6,3.66-12.38-1.72-23.33,1.76-33.47,8.7-1.45.99-3.54,1.4-5.35,1.46-5.58.18-11.17.07-17.27.07.89-15.59-4.74-28.18-17.34-37.15-7.92-5.64-17.02-7.99-26.75-6.9-18.61,2.08-37.12,18.13-35.73,43.74H115.1c.55-14.24-4.13-26.37-15.56-35.38-7.67-6.05-16.46-8.83-26.26-8.51-16.58.55-38.72,14.11-38.39,43.87-8.83-2.1-17.53-4.11-26.18-6.3-1.22-.31-2.36-1.39-3.29-2.35-4.25-4.39-7.52-20.11-3.79-24.74,8.42-10.46,15.14-23.36,29.16-27.52,8.26-2.45,17.1-3.15,25.73-4.15,16.66-1.94,33.38-3.43,50.04-5.4,2.45-.29,5.17-1.68,7-3.39,10.87-10.15,21.59-20.47,32.21-30.88C149.82,1.85,154.38-.01,160.06,0c35.35.09,70.7.03,106.04.06,9.05,0,13.25,3.85,14.08,12.78.82,8.81,1.57,17.63,2.37,26.67h12.1c0-1.46,0-2.89,0-4.33,0-9.01-.04-18.02.02-27.02.03-5.11,2.03-6.92,7.37-6.96,5.7-.05,7.9,1.7,7.98,6.87.13,8.87.04,17.74.04,26.61,0,1.48,0,2.95,0,4.93,1.95,0,3.54.01,5.14,0,27.57-.26,55.13-.53,82.7-.78,6.52-.06,7.34.66,7.66,7.12.52,10.49.93,20.99,1.4,31.49.07,1.6.16,3.2.24,4.99,4.47.64,9.39-.93,12.02,3.93v10.65ZM201.23,10.03c-14.66,0-28.85-.07-43.03.1-1.53.02-3.45,1.07-4.48,2.26-4.38,5.05-8.51,10.31-12.65,15.56-.62.79-1.13,1.93-1.11,2.9.06,3.6.36,7.19.57,10.87h60.71V10.03ZM261.95,41.76c0-8.7.07-17.12-.03-25.53-.06-4.89-1.5-6.2-6.48-6.21-11.46-.03-22.92-.02-34.37,0-1.03,0-2.07.2-3.13.31v31.43h44.01Z"/><path class="cls-1" d="M75.16,139.82c-18.06.13-33.3-14.8-33.44-32.75-.14-18.48,14.88-33.75,33.26-33.82,18.41-.07,33.31,14.93,33.41,33.64.1,17.87-14.97,32.8-33.24,32.93ZM77.9,127.72c3.69-1.58,6.53-2.81,10.64-4.57-2.77-2.33-4.57-3.96-6.51-5.41-.64-.48-1.84-.89-2.41-.6-.77.39-1.57,1.46-1.65,2.3-.22,2.41-.08,4.84-.08,8.28ZM54.01,109.45c1.54,3.67,2.77,6.59,4.4,10.47,2.26-2.55,3.87-4.21,5.27-6.03.57-.74,1.08-2,.82-2.75-.25-.74-1.47-1.53-2.33-1.61-2.37-.22-4.78-.08-8.16-.08ZM77.9,85.59c0,3.33-.14,5.73.04,8.11.19,2.52,2.21,3.32,4.19,1.73,1.96-1.57,3.82-3.26,6.49-5.56-4.19-1.67-7.1-2.83-10.72-4.28ZM96.07,109.46c-3.38,0-5.85-.21-8.26.06-2.4.26-3.44,1.83-1.76,3.88,1.66,2.03,3.75,3.7,6.14,6,1.39-3.57,2.51-6.42,3.88-9.94ZM96.17,103.67c-1.51-3.56-2.72-6.42-4.36-10.31-2.32,2.58-4.04,4.3-5.49,6.21-.53.69-.78,1.94-.53,2.75.18.6,1.33,1.24,2.09,1.29,2.41.16,4.84.06,8.3.06ZM72.1,127.53c0-3.23.17-5.82-.05-8.37-.2-2.33-1.77-3.15-3.62-1.65-2.05,1.66-3.75,3.75-6.1,6.17,3.55,1.4,6.4,2.53,9.77,3.86ZM72.11,85.49c-3.65,1.59-6.48,2.81-10.1,4.39,2.41,2.23,4.01,3.89,5.81,5.3.73.57,2.04,1.07,2.78.78.71-.27,1.37-1.56,1.45-2.45.2-2.27.07-4.56.07-8.02ZM54.05,103.65c3.46,0,5.9.16,8.3-.04,2.75-.24,3.06-1.92,1.61-3.91-1.49-2.04-3.22-3.91-5.53-6.67-1.74,4.22-2.9,7.02-4.39,10.63Z"/><path class="cls-1" d="M315.67,139.83c-18.1.08-33.25-14.84-33.31-32.8-.06-18.68,14.76-33.75,33.23-33.78,18.46-.03,33.24,14.93,33.31,33.7.07,17.91-14.98,32.81-33.23,32.89ZM294.47,109.45c1.62,3.71,2.89,6.6,4.49,10.27,2.29-2.49,3.94-4.11,5.35-5.91.56-.72,1-2.04.71-2.77-.29-.73-1.53-1.43-2.41-1.51-2.27-.21-4.57-.07-8.14-.07ZM336.73,109.45c-3.48,0-5.76-.13-8.02.07-.89.08-2.13.73-2.44,1.45-.31.72.08,2.05.62,2.77,1.45,1.93,3.13,3.68,5.41,6.28,1.63-3.89,2.83-6.75,4.43-10.56ZM312.75,85.48c-3.7,1.58-6.58,2.8-10.72,4.56,2.61,2.15,4.3,3.72,6.18,5.02.87.6,2.19,1.05,3.14.83.63-.15,1.26-1.58,1.34-2.49.19-2.27.06-4.56.06-7.92ZM318.51,85.52c0,3.38-.13,5.68.07,7.95.08.89.71,2.16,1.42,2.46.73.31,2.06-.09,2.81-.63,1.97-1.41,3.76-3.07,6.42-5.3-4.13-1.73-7.03-2.94-10.71-4.48ZM303.25,122.44c.11.5.21.99.32,1.49,2.9,1.15,5.81,2.3,9.18,3.64,0-3.13.13-5.57-.07-7.97-.07-.86-.77-2.08-1.48-2.35-.72-.27-1.98.2-2.7.74-1.84,1.37-3.51,2.96-5.25,4.46ZM328.77,123.53c-2.69-2.52-4.41-4.43-6.42-5.96-2.02-1.53-3.59-.77-3.79,1.76-.2,2.52-.04,5.06-.04,8.22,3.38-1.33,6.22-2.44,10.26-4.03ZM299.71,94.11c-.48.14-.96.28-1.45.43-1.09,2.87-2.18,5.74-3.46,9.12,3.21,0,5.52.14,7.79-.07.89-.08,2.17-.76,2.43-1.47.27-.73-.29-1.99-.85-2.75-1.38-1.84-2.97-3.52-4.47-5.26ZM336.76,103.68c-1.58-3.63-2.82-6.48-4.49-10.31-2.23,2.55-3.84,4.21-5.22,6.05-.56.74-1.08,2.04-.79,2.76.28.71,1.56,1.36,2.46,1.44,2.27.2,4.58.07,8.04.07Z"/></svg>