<?xml version="1.0" encoding="UTF-8"?><svg id="Capa_1" xmlns="http://www.w3.org/2000/svg" viewBox="0 0 263.85 264.03"><defs><style>.cls-1{fill:#fff;stroke-width:0px;}</style></defs><path class="cls-1" d="M171.92,189.87c-49.05,37.86-116.27,25.83-150.62-19.55C-10.86,127.84-6.2,66.83,32.58,29.71c39.6-37.91,100.41-39.79,142.55-4.18,41.64,35.18,50.8,99,14.37,146.66.93.57,2.17,1.05,3.04,1.91,22.21,22.14,44.35,44.34,66.57,66.46,4.01,3.99,5.72,8.57,4.18,14.03-2.45,8.68-12.89,12.24-20.23,6.99-1.16-.83-2.19-1.87-3.21-2.89-21.96-21.94-43.92-43.89-65.85-65.87-.86-.87-1.44-2.03-2.08-2.95ZM105.93,186.17c43.78.26,79.7-35.42,80.02-79.49.31-43.45-35.22-79.75-78.39-80.07-44.96-.33-80.81,34.57-81.17,79.05-.36,44.29,35.16,80.25,79.54,80.52Z"/><path class="cls-1" d="M44.33,108.81c-.3-8.27,3.29-13.76,9.99-15.31,8.3-1.92,15.91,3.84,16.21,12.44.44,12.21,5.22,22.12,15.19,29.33,6.21,4.48,13.25,6.42,20.88,6.59,6.01.13,10.79,4.14,12.3,9.93,1.45,5.56-.8,11.59-5.88,14.35-2.26,1.22-5.06,2.03-7.61,2.02-32.68-.17-59.9-26.71-61.07-59.35Z"/></svg>