<?xml version="1.0" encoding="UTF-8"?><svg id="Capa_1" xmlns="http://www.w3.org/2000/svg" viewBox="0 0 343.75 122.22"><defs><style>.cls-1{fill:#fff;stroke-width:0px;}</style></defs><path class="cls-1" d="M343.75,75.19c-2.1,4.37-3.81,9.02-6.49,13.01-1.29,1.91-4.28,3.17-6.73,3.73-7.73,1.76-15.56,3.05-23.85,4.62-.9-13-6.69-22.87-18.53-28.51-6.12-2.92-12.7-3.55-19.33-2.11-11.75,2.55-26.01,13.35-24.57,35.53-51.32,1.04-102.63,2.07-154.32,3.11,2.61-11.8-.02-22.02-8.36-30.41-6.11-6.15-13.8-9.23-22.45-8.9-19.29.75-32.3,16.65-29.97,37-4.95-.82-9.76-1.4-14.48-2.43-10.6-2.32-12.19-4.43-14.31-15.54-1.24-6.52.95-12.26,2.46-18.33,1.63-6.56,5.64-10,11.54-12.26,17.71-6.79,36.04-11.4,54.67-14.52,10.06-1.69,18.87-6.06,27.93-10,12.91-5.61,25.68-11.57,38.52-17.33C157.86,1.81,181.43-.79,205.65.19c30.03,1.21,58.43,9.03,85.87,20.77,11.92,5.1,24.33,8.15,37.12,9.94,7.84,1.1,9.04,2.57,9.04,10.4,0,2.57.08,5.15-.02,7.72-.17,4.37-.18,8.49,3.27,12.07,1.57,1.62,1.91,4.43,2.81,6.7v7.39ZM127.52,40.31c-.34-.11-.13.02.08.02,18.22-.49,36.45-.97,54.67-1.58.82-.03,2.04-1.18,2.3-2.04,1.05-3.41,1.81-6.91,2.65-10.38,1.41-5.81,2.81-11.61,4.38-18.11-25.05,2.04-48.89,5.42-68.15,20.64,1.48,4.17,2.67,7.52,4.07,11.46ZM196.41,37.82c17.84-.59,35.12-1.16,52.27-1.73,2.76-5.57,3.88-10.81-.83-15.81-1.13-1.19-1.65-2.95-2.72-4.2-.95-1.11-2.16-2.32-3.49-2.72-12.51-3.8-25.39-4.97-38.41-4.88-.8,0-2.16.96-2.28,1.65-1.58,9.01-2.98,18.05-4.53,27.69ZM250.47,15.99c0,.67-.11,1.02.02,1.19,4.24,5.87,8.48,11.75,12.79,17.57.41.55,1.25,1.09,1.9,1.1,4.42.1,8.84.05,13.2.05.52-4.6-.68-7.1-4.65-9.03-7.61-3.69-15.31-7.19-23.25-10.89Z"/><path class="cls-1" d="M249.53,95.42c.85-14.87,12.8-25.77,27.3-24.92,14.05.83,25.22,13.1,24.47,26.88-.79,14.38-13.08,25.56-27.28,24.79-14.12-.76-25.29-12.96-24.49-26.76ZM264.96,83.27c2.1,1.89,3.36,3.16,4.78,4.23.58.43,1.65.77,2.22.51.58-.26,1.07-1.27,1.14-2,.16-1.75.05-3.53.05-6.01-2.75,1.1-5.03,2.01-8.18,3.27ZM273.14,112.74c0-2.73.17-4.63-.05-6.48-.24-2.02-1.45-2.66-3.15-1.28-1.51,1.22-2.89,2.6-4.86,4.4,3.03,1.26,5.21,2.17,8.06,3.36ZM291.7,94.07c-1.15-2.76-2.09-5.02-3.45-8.26-1.73,2.08-3,3.49-4.11,5-.4.54-.82,1.55-.58,1.97.35.61,1.26,1.16,1.99,1.23,1.84.17,3.71.06,6.16.06ZM288.26,107.13c1.39-3.49,2.3-5.78,3.37-8.47-2.5,0-4.39-.12-6.26.03-2.12.18-2.71,1.32-1.38,3.1,1.19,1.6,2.48,3.11,4.27,5.34ZM259.07,94.07c2.46,0,4.32.08,6.18-.02,2.35-.12,2.5-1.44,1.41-3.11-1.07-1.64-2.3-3.18-3.46-4.77-.45.28-.91.57-1.36.85-.86,2.2-1.73,4.39-2.77,7.05ZM259.01,98.66c1.12,2.68,2.04,4.89,2.97,7.11.41.16.82.32,1.23.48,1.16-1.48,2.37-2.91,3.45-4.44,1.18-1.67,1.02-2.99-1.34-3.13-1.87-.11-3.75-.02-6.31-.02ZM285.77,83.35c-3.16-1.32-5.33-2.22-8.12-3.38,0,2.68-.19,4.66.05,6.59.23,1.86,1.45,2.43,3.03,1.19,1.48-1.16,2.84-2.47,5.04-4.4ZM285.95,109.15c-2.17-1.75-3.65-2.89-5.09-4.09-1.78-1.49-2.9-.83-3.16,1.18-.24,1.9-.05,3.85-.05,6.5,2.86-1.23,5.01-2.16,8.3-3.58Z"/><path class="cls-1" d="M33.98,96.16c.24-14.52,11.96-25.99,26.28-25.71,14.35.28,25.76,12.15,25.5,26.55-.25,13.86-12.21,25.38-26.18,25.22-14.21-.16-25.83-11.99-25.61-26.06ZM57.58,79.94c-2.85,1.22-5.1,2.18-8.12,3.47,1.95,1.69,3.23,2.93,4.65,3.99.6.45,1.75.95,2.17.68.65-.41,1.14-1.44,1.24-2.26.19-1.64.06-3.31.06-5.88ZM46.95,85.68c-1.38,3.4-2.29,5.64-3.41,8.39,2.52,0,4.3.11,6.05-.05.72-.07,1.76-.59,1.96-1.16.22-.59-.23-1.6-.67-2.23-1.01-1.45-2.19-2.78-3.93-4.94ZM47.01,106.93c1.75-2.14,2.96-3.58,4.13-5.05,1.35-1.7.97-2.94-1.2-3.17-1.92-.21-3.88-.04-6.54-.04,1.25,2.87,2.2,5.03,3.61,8.26ZM62.15,79.99c0,2.55-.09,4.42.05,6.28.05.63.55,1.62,1.02,1.75.67.18,1.66-.09,2.26-.53,1.5-1.08,2.85-2.35,4.91-4.1-3.28-1.35-5.47-2.26-8.24-3.4ZM72.85,86.02c-1.8,2.01-3.06,3.27-4.12,4.68-.45.59-.83,1.66-.58,2.22.25.57,1.3,1.03,2.03,1.09,1.8.15,3.62.05,6.07.05-1.21-2.88-2.14-5.06-3.4-8.05ZM72.88,106.89c1.29-3.32,2.16-5.57,3.19-8.24-2.4,0-4.07-.13-5.71.05-.84.09-1.88.57-2.32,1.22-.27.39.29,1.56.75,2.18,1.06,1.42,2.29,2.71,4.08,4.78ZM49.25,109.23c3.32,1.38,5.59,2.32,8.33,3.45,0-2.56.08-4.43-.05-6.29-.04-.63-.53-1.6-1-1.73-.67-.19-1.65.06-2.24.48-1.53,1.07-2.92,2.34-5.04,4.08ZM70.39,109.19c-2.12-1.75-3.58-2.93-5.03-4.14-1.74-1.45-2.91-.9-3.16,1.17-.23,1.91-.05,3.87-.05,6.49,2.85-1.22,5.02-2.15,8.24-3.52Z"/></svg>