<?xml version="1.0" encoding="UTF-8"?>
<svg id="Capa_1" data-name="Capa 1" xmlns="http://www.w3.org/2000/svg" viewBox="0 0 62.56 15.89">
  <defs>
    <style>
      .cls-1, .cls-2, .cls-3, .cls-4, .cls-5, .cls-6, .cls-7 {
        fill: #fff;
      }

      .cls-2 {
        letter-spacing: .16em;
      }

      .cls-2, .cls-3, .cls-4, .cls-5, .cls-6, .cls-7 {
        font-family: Montserrat-SemiBold, Montserrat;
        font-size: 1.94px;
        isolation: isolate;
      }

      .cls-3 {
        letter-spacing: .2em;
      }

      .cls-8 {
        fill: #b90403;
      }

      .cls-9 {
        letter-spacing: .16em;
      }

      .cls-10 {
        letter-spacing: .18em;
      }

      .cls-5 {
        letter-spacing: .18em;
      }

      .cls-6 {
        letter-spacing: .2em;
      }

      .cls-7 {
        letter-spacing: .19em;
      }
    </style>
  </defs>
  <g>
    <path class="cls-1" d="M.72,9.47c-.26-.31-.42-.67-.52-1.06-.13-.49-.18-.99-.05-1.49,.03-.13,.08-.26,.18-.37,.04-.05,.06-.09,0-.11-.12-.04-.13-.13-.11-.25,.03-.27,.08-.53,.2-.78,.17-.34,.44-.54,.8-.65,.45-.14,.88-.33,1.32-.49,.64-.24,1.25-.55,1.89-.78,.87-.31,1.75-.52,2.66-.65,2.19-.32,4.33-.08,6.42,.64,1.2,.41,2.35,.94,3.44,1.58q.15,.09,.19-.08c.17-.85,.2-1.7-.08-2.53-.42-1.21-1.31-1.9-2.53-2.2-.38-.09-.78-.13-1.17-.14-.05,0-.1,0-.15,0,1.25-.18,2.48-.17,3.63,.44,1.09,.58,1.67,1.52,1.86,2.72,.1,.65,.06,1.3-.07,1.94-.02,.11,0,.12,.1,.14,1.88,.36,3.45,1.27,4.71,2.7,.25,.28,.45,.59,.58,.94,.13,.33,.1,.65-.06,.96-.15,.29-.36,.53-.6,.75-.28,.26-.58,.47-.9,.67-.04,.03-.08,.05-.14,.04,0-.04,.04-.05,.07-.08,.94-.91,1.06-2.14,.32-3.26-.59-.9-1.42-1.51-2.39-1.93-.54-.23-1.1-.38-1.69-.44-.07,0-.11,0-.13,.08-.47,1.7-1.36,3.17-2.47,4.52-.12,.15-.25,.3-.38,.44-.07,.07-.06,.1,.02,.16,.57,.37,1.2,.61,1.86,.77,.99,.23,1.99,.26,3,.19,.27-.02,.54-.05,.81-.05-.26,.06-.51,.13-.77,.19-.86,.2-1.72,.38-2.61,.4-.87,.02-1.71-.12-2.5-.52-.16-.08-.32-.18-.48-.28-.07-.04-.11-.04-.17,.02-.21,.21-.43,.41-.66,.61-.05,.04-.06,.08-.05,.15,.12,.72,.15,1.44,.09,2.16,0,.09,0,.13,.11,.14,.53,.04,1.06,.09,1.59,.14,.09,0,.17,0,.25-.04,.38-.17,.76-.32,1.13-.49,.12-.05,.24-.07,.37-.06,1.01,.08,2.01,.04,3-.2,1.18-.28,2.22-.84,3.12-1.65,.04-.04,.07-.09,.15-.09-.03,.04-.05,.07-.08,.1-.55,.67-1.12,1.32-1.81,1.84-.21,.16-.42,.23-.67,.25-1.27,.1-2.54,.2-3.8,.31-.07,0-.13,.02-.19,.05-.37,.19-.73,.37-1.1,.56-.07,.03-.13,.05-.2,.04-.76-.07-1.52-.15-2.28-.21-.12-.01-.13-.06-.13-.15,.02-.51,.02-1.02-.03-1.52,0-.07-.02-.15-.04-.22-.04,.21-.07,.41-.13,.61-.14,.46-.36,.86-.75,1.15-.31,.24-.67,.33-1.07,.31-.51-.03-.98-.16-1.37-.52-.07-.06-.11-.02-.17,0-.73,.33-1.48,.6-2.25,.77-1.07,.25-2.15,.34-3.25,.1-1.75-.38-2.88-1.67-3.01-3.45,0-.06-.06-.13-.02-.19,.05,0,.04,.04,.05,.07,.38,1.31,1.27,2.09,2.58,2.41,.96,.23,1.91,.16,2.87-.04,.79-.17,1.55-.44,2.29-.77,.09-.04,.11-.07,.08-.18-.21-.56-.26-1.14-.18-1.74,0-.03,0-.08,.05-.11,.02,.07,0,.13-.01,.19-.04,.56,.06,1.09,.29,1.59,.02,.04,.02,.12,.1,.08s.01-.09,0-.13c-.34-.78-.41-1.57-.08-2.36,.2-.48,.54-.84,1.08-.94,.39-.08,.74,.03,1.06,.26,.42,.29,.68,.69,.86,1.16,.01,.03,0,.11,.07,.07,.05-.02,.08-.06,.06-.13-.27-.66-.66-1.21-1.35-1.48-.02,0-.05-.02-.08-.03,.18-.03,.43,.02,.67,.12,.21,.09,.39,.22,.59,.37-.14-.43-.98-.91-1.57-.91-.54,0-.88,.15-1.68,.75-.07-.2-.05-.41-.11-.61,0-.02,.02-.04,.03-.06,.5-.51,1.09-.86,1.83-.87,.58,0,1.08,.21,1.53,.57,.46,.38,.78,.86,1.05,1.42,.12-.12,.22-.23,.33-.34,.03-.03,.03-.07,.01-.1-.11-.31-.19-.63-.32-.94-.25-.61-.72-.99-1.33-1.2-.05-.02-.1-.01-.14-.07,.32-.02,.6,.06,.86,.23,.27,.18,.48,.41,.69,.65,.23,.26,.45,.52,.68,.79,.04,.05,.07,.08,.13,0,.65-.76,1.23-1.58,1.7-2.47v-.04c-1.79,.24-3.58,.09-5.36-.07,.01,0,.03-.02,0-.03,.46-.01,.92-.03,1.38-.04,1.21-.05,2.42-.12,3.61-.37,.21-.04,.41-.11,.62-.16,.07-.02,.11-.06,.14-.12,.15-.36,.27-.73,.38-1.1,.02-.07,.02-.11-.06-.15-1.54-.79-3.12-1.47-4.8-1.89-1.49-.37-3.01-.5-4.54-.33-1.78,.19-3.49,.65-5.06,1.54-.12,.07-.24,.15-.36,.22-.08,.05-.07,.07,0,.12,.32,.24,.61,.53,.84,.86,.31,.46,.44,.97,.46,1.52,0,.26,0,.52-.05,.78-.05-.14-.11-.27-.16-.41-.14-.36-.26-.73-.46-1.07-.31-.54-.75-.92-1.34-1.12-.09-.03-.15-.03-.21,.05-.1,.12-.21,.22-.32,.33-.07,.06-.07,.1,0,.17,.48,.52,.93,1.06,1.31,1.66,.25,.38,.46,.78,.63,1.21,.04,.09,.09,.15,.17,.19,1.9,1.06,3.8,2.11,5.7,3.17,.03,.02,.06,.03,.09,.05-.04,.04-.07,0-.1,0-2.07-.93-4.14-1.87-6.2-2.8-.06-.03-.09-.06-.11-.12-.07-.2-.15-.4-.23-.6,0,.26,0,.52-.07,.78-.03,.11-.06,.22-.11,.32-.2,.45-.54,.49-.95,.3-.21-.1-.35-.28-.47-.47-.33-.51-.5-1.07-.58-1.66-.02-.15-.04-.31,0-.5,.02,.53,.13,1,.33,1.45,.09,.21,.22,.41,.37,.58,.14,.17,.33,.26,.53,.31,.15,.04,.26-.06,.35-.17,.16-.2,.22-.45,.25-.7,.04-.35,.02-.7-.05-1.05-.03-.17-.16-.27-.25-.39-.23-.35-.53-.63-.85-.89-.1-.08-.17-.06-.24,.02-.17,.17-.23,.39-.25,.62-.07,.76,.08,1.47,.53,2.11l-.02,.02v-.02Zm8.86,2.88c0,.37,.07,.73,.21,1.08,.03,.07,.05,.1,.13,.05,.1-.06,.22-.12,.33-.17,.07-.03,.08-.06,.03-.13-.19-.27-.26-.58-.24-.92,.05-.63,.57-1.05,1.16-.93,.39,.08,.66,.32,.83,.67,.05,.11,.09,.1,.17,.03,.09-.08,.19-.16,.29-.23,.05-.04,.07-.06,.04-.13-.17-.37-.39-.69-.73-.93-.65-.47-1.42-.33-1.87,.34-.25,.38-.35,.81-.35,1.27Zm.98,2.29c.3,.1,.56,.25,.84,.23,.74-.05,1.46-.87,1.46-1.63-.72,.52-1.47,.98-2.3,1.4Z"/>
    <path class="cls-8" d="M7.62,2.33c1.75-1.12,3.59-1.95,5.71-1.96,.64,0,1.27,.1,1.85,.38,1.07,.51,1.63,1.37,1.78,2.53,.04,.29,.03,.57,.02,.87-.06-.08-.05-.17-.06-.24-.27-1.27-1.08-2.01-2.32-2.29-.97-.22-1.93-.09-2.89,.15-.5,.13-.99,.31-1.46,.51-.06,.02-.11,.04-.18,.04-.82-.07-1.64-.06-2.46,0h0Z"/>
    <path class="cls-8" d="M5.82,14.43c-.72,.05-1.44,0-2.12-.28-1.18-.48-1.81-1.38-1.96-2.63-.03-.24-.03-.48-.02-.73,0-.06,0-.1,.08-.13,.32-.1,.51-.33,.63-.63,.04-.09,.07-.11,.16-.06,.12,.07,.26,.12,.39,.18,.08,.03,.09,.07,.08,.15-.12,.6-.16,1.21-.02,1.81,.28,1.23,1.07,1.94,2.28,2.23,.17,.04,.33,.06,.5,.09Z"/>
    <path class="cls-8" d="M9.11,9.39c-.14-1.14-.46-2.2-1.13-3.12-1.05-1.44-2.47-2.01-4.23-1.76-.05,0-.09,.02-.13-.02,1.5-.38,2.85-.05,4.04,.92,1.28,1.04,1.62,2.65,1.45,3.97h0Z"/>
    <path class="cls-1" d="M.58,8.03c0-.18,.02-.31,.09-.44,.11-.21,.3-.26,.49-.12,.21,.15,.31,.37,.37,.61,.06,.2,.09,.4,.04,.6,0,.05-.02,.1-.04,.15-.11,.29-.37,.35-.59,.13-.19-.19-.29-.43-.34-.69-.02-.09-.04-.19-.03-.24h0Z"/>
    <path class="cls-8" d="M24.33,10.38c.03,.05,0,.08-.02,.12-.66,1.39-1.72,2.36-3.17,2.9-.11,.04-.14-.01-.18-.09-.1-.19-.11-.18,.1-.25,1.2-.39,2.12-1.15,2.87-2.14,.13-.17,.26-.36,.39-.54h.01Z"/>
    <path class="cls-1" d="M8.95,11.44c-1.56-.86-3.11-1.72-4.67-2.58,.06-.02,.1,.02,.14,.04,1.45,.73,2.91,1.47,4.36,2.2,.13,.07,.19,.18,.17,.35h0Z"/>
    <path class="cls-8" d="M10.89,7.21v.03c-.06,0-.12-.02-.17-.02,.04-.01,.11-.03,.17,0h0Z"/>
    <path class="cls-1" d="M.74,9.45l.11,.12c-.06-.01-.1-.05-.13-.1,0,0,0-.01,.02-.02Z"/>
  </g>
  <g>
    <path class="cls-1" d="M26.87,7.21c-.34-.18-.61-.43-.8-.76-.19-.32-.29-.69-.29-1.1s.1-.77,.29-1.1c.19-.32,.46-.58,.8-.76s.73-.27,1.15-.27c.37,0,.71,.07,1.01,.2,.3,.13,.55,.32,.75,.57l-.74,.67c-.27-.32-.59-.48-.96-.48-.22,0-.42,.05-.59,.15s-.31,.23-.4,.41c-.1,.18-.14,.38-.14,.61s.05,.43,.14,.61c.1,.18,.23,.31,.4,.41s.37,.15,.59,.15c.38,0,.7-.16,.96-.48l.74,.67c-.2,.25-.45,.44-.75,.57s-.64,.2-1.01,.2c-.43,0-.81-.09-1.15-.27Z"/>
    <path class="cls-1" d="M32.79,4.54c.28,.24,.41,.61,.41,1.1v1.76h-1.03v-.41c-.16,.31-.47,.46-.94,.46-.25,0-.46-.04-.64-.13s-.31-.2-.41-.35c-.09-.15-.14-.31-.14-.5,0-.3,.11-.53,.34-.7s.58-.25,1.06-.25h.63c-.02-.33-.24-.5-.67-.5-.15,0-.31,.02-.46,.07s-.29,.12-.4,.2l-.37-.75c.18-.12,.39-.21,.64-.27s.5-.1,.76-.1c.53,0,.93,.12,1.2,.36h.02Zm-.91,2.13c.1-.06,.17-.15,.21-.27v-.27h-.48c-.32,0-.48,.11-.48,.32,0,.1,.04,.18,.11,.23,.07,.06,.18,.09,.3,.09s.24-.03,.34-.09h0Z"/>
    <path class="cls-1" d="M35.41,4.28c.18-.07,.39-.11,.62-.11v1c-.1-.01-.19-.02-.25-.02-.24,0-.42,.06-.56,.19-.13,.13-.2,.33-.2,.59v1.46h-1.11v-3.17h1.06v.38c.11-.14,.26-.25,.44-.32Z"/>
    <path class="cls-1" d="M40.57,3.31l-1.75,4.09h-1.14l-1.75-4.09h1.25l1.11,2.66,1.13-2.66s1.15,0,1.15,0Z"/>
    <path class="cls-1" d="M41.19,7.24c-.27-.14-.49-.33-.64-.58-.15-.25-.23-.53-.23-.85s.08-.59,.23-.84c.15-.25,.37-.44,.64-.58s.58-.21,.92-.21,.65,.07,.92,.21c.27,.14,.48,.33,.64,.58,.15,.25,.23,.53,.23,.84s-.08,.6-.23,.85c-.15,.25-.36,.44-.64,.58-.27,.14-.58,.21-.92,.21s-.64-.07-.92-.21Zm1.4-.87c.12-.13,.19-.32,.19-.56s-.06-.42-.19-.55c-.12-.13-.28-.2-.48-.2s-.35,.07-.48,.2c-.12,.13-.19,.32-.19,.55s.06,.42,.19,.56c.12,.13,.28,.2,.48,.2s.35-.07,.48-.2Z"/>
    <path class="cls-1" d="M44.41,3.06h1.11V7.4h-1.11V3.06Z"/>
    <path class="cls-1" d="M49.57,4.23v3.17h-1.06v-.34c-.12,.13-.26,.23-.42,.29-.16,.07-.34,.1-.52,.1-.41,0-.74-.12-.98-.36s-.37-.6-.37-1.09v-1.77h1.11v1.59c0,.24,.04,.41,.13,.52s.22,.16,.39,.16,.32-.06,.43-.18,.17-.31,.17-.56v-1.52h1.12Z"/>
    <path class="cls-1" d="M52.47,7.27c-.09,.06-.21,.1-.34,.13s-.28,.05-.43,.05c-.41,0-.73-.1-.95-.3-.22-.2-.33-.5-.33-.91v-1.06h-.46v-.83h.46v-.82h1.11v.82h.72v.83h-.72v1.05c0,.11,.03,.2,.09,.27,.06,.06,.14,.1,.24,.1,.13,0,.24-.03,.34-.1l.27,.78h0Z"/>
    <path class="cls-1" d="M52.96,3.71c-.12-.11-.19-.25-.19-.42s.06-.31,.19-.42c.12-.11,.29-.17,.49-.17s.37,.05,.49,.16c.12,.11,.19,.24,.19,.41s-.06,.32-.19,.44c-.12,.11-.29,.17-.49,.17s-.37-.06-.49-.17Zm-.06,.52h1.11v3.17h-1.11v-3.17Z"/>
    <path class="cls-1" d="M55.4,7.24c-.27-.14-.49-.33-.64-.58-.15-.25-.23-.53-.23-.85s.08-.59,.23-.84c.15-.25,.37-.44,.64-.58s.58-.21,.92-.21,.65,.07,.92,.21c.27,.14,.48,.33,.64,.58,.15,.25,.23,.53,.23,.84s-.08,.6-.23,.85c-.15,.25-.36,.44-.64,.58-.27,.14-.58,.21-.92,.21s-.64-.07-.92-.21Zm1.4-.87c.12-.13,.19-.32,.19-.56s-.06-.42-.19-.55c-.12-.13-.28-.2-.48-.2s-.35,.07-.48,.2c-.12,.13-.19,.32-.19,.55s.06,.42,.19,.56c.12,.13,.28,.2,.48,.2s.35-.07,.48-.2Z"/>
    <path class="cls-1" d="M61.63,4.53c.24,.23,.36,.59,.36,1.06v1.81h-1.11v-1.63c0-.43-.17-.65-.52-.65-.19,0-.34,.06-.46,.19-.12,.12-.17,.31-.17,.56v1.53h-1.11v-3.17h1.06v.34c.12-.13,.27-.23,.44-.3s.36-.1,.56-.1c.39,0,.71,.12,.95,.35h0Z"/>
  </g>
  <path class="cls-8" d="M25.78,9.39H59.76c1.55,0,2.8,1.26,2.8,2.8v1.05H28.54c-1.52,0-2.76-1.24-2.76-2.76v-1.1h0Z"/>
  <text class="cls-5" transform="translate(31.92 11.9)"><tspan x="0" y="0">V</tspan></text>
  <text class="cls-6" transform="translate(33.69 11.9)"><tspan x="0" y="0">EN</tspan></text>
  <text class="cls-2" transform="translate(37.34 11.9)"><tspan x="0" y="0">T</tspan></text>
  <text class="cls-3" transform="translate(38.83 11.9)"><tspan x="0" y="0">AS DE </tspan></text>
  <text class="cls-4" transform="translate(47.82 11.9)"><tspan class="cls-9" x="0" y="0">A</tspan><tspan class="cls-10" x="1.77" y="0">U</tspan></text>
  <text class="cls-7" transform="translate(51.52 11.9)"><tspan x="0" y="0">T</tspan></text>
  <text class="cls-6" transform="translate(53.06 11.9)"><tspan x="0" y="0">OS</tspan></text>
</svg>