<?xml version="1.0" encoding="UTF-8"?>
<svg id="Capa_1" data-name="Capa 1" xmlns="http://www.w3.org/2000/svg" viewBox="0 0 59.31 9.4">
  <defs>
    <style>
      .cls-1 {
        fill: #bfaf4c;
      }
    </style>
  </defs>
  <path class="cls-1" d="M4.93,7.37s-.06,.05-.09,.07c-.85,.62-1.71,1.25-2.56,1.87-.02,.02-.04,.03-.07,.05-.1,.06-.21,.06-.31,0-.1-.06-.14-.18-.11-.3,0-.03,.02-.06,.03-.09,.33-1.01,.66-2.01,.99-3.02,0-.03,.02-.06,.03-.09-.02-.04-.05-.05-.08-.07-.72-.52-1.44-1.05-2.17-1.57-.15-.11-.3-.22-.45-.32-.05-.04-.09-.08-.12-.14-.06-.17,.06-.36,.24-.37,.02,0,.05,0,.08,0,1.06,0,2.13,0,3.19,0,.03,0,.07,0,.11,0,.01-.03,.03-.07,.04-.1,.27-.82,.53-1.65,.8-2.47,.06-.19,.12-.38,.18-.57,0-.03,.02-.05,.03-.08C4.73,.06,4.81,0,4.93,0c.11,0,.2,.05,.25,.16,.02,.03,.02,.06,.04,.1,.33,1.01,.65,2.02,.98,3.02,.01,.03,.02,.06,.03,.1,.04,.01,.08,0,.11,0,.48,0,.96,0,1.44,0,.58,0,1.15,0,1.73,0,.03,0,.06,0,.08,0,.12,.01,.21,.07,.25,.19,.04,.11,0,.23-.08,.31-.04,.03-.07,.06-.11,.08-.84,.61-1.68,1.22-2.52,1.83-.03,.02-.06,.04-.09,.06,0,.04,.01,.07,.02,.11,.17,.52,.34,1.04,.51,1.56,.16,.49,.32,.98,.48,1.47,0,.02,.02,.05,.02,.07,.03,.12,0,.22-.1,.29-.09,.07-.22,.08-.32,.02-.02-.01-.04-.03-.05-.04-.86-.62-1.71-1.25-2.57-1.87-.03-.02-.07-.05-.1-.07Z"/>
  <path class="cls-1" d="M17.29,7.37s-.06,.05-.09,.07c-.85,.62-1.71,1.25-2.56,1.87-.02,.02-.04,.03-.07,.05-.1,.06-.21,.06-.31,0-.1-.06-.14-.18-.11-.3,0-.03,.02-.06,.03-.09,.33-1.01,.66-2.01,.99-3.02,0-.03,.02-.06,.03-.09-.02-.04-.05-.05-.08-.07-.72-.52-1.44-1.05-2.17-1.57-.15-.11-.3-.22-.45-.32-.05-.04-.09-.08-.12-.14-.06-.17,.06-.36,.24-.37,.02,0,.05,0,.08,0,1.06,0,2.13,0,3.19,0,.03,0,.07,0,.11,0,.01-.03,.03-.07,.04-.1,.27-.82,.53-1.65,.8-2.47,.06-.19,.12-.38,.18-.57,0-.03,.02-.05,.03-.08C17.09,.06,17.18,0,17.29,0c.11,0,.2,.05,.25,.16,.02,.03,.02,.06,.04,.1,.33,1.01,.65,2.02,.98,3.02,.01,.03,.02,.06,.03,.1,.04,.01,.08,0,.11,0,.48,0,.96,0,1.44,0,.58,0,1.15,0,1.73,0,.03,0,.06,0,.08,0,.12,.01,.21,.07,.25,.19,.04,.11,0,.23-.08,.31-.04,.03-.07,.06-.11,.08-.84,.61-1.68,1.22-2.52,1.83-.03,.02-.06,.04-.09,.06,0,.04,.01,.07,.02,.11,.17,.52,.34,1.04,.51,1.56,.16,.49,.32,.98,.48,1.47,0,.02,.02,.05,.02,.07,.03,.12,0,.22-.1,.29-.09,.07-.22,.08-.32,.02-.02-.01-.04-.03-.05-.04-.86-.62-1.71-1.25-2.57-1.87-.03-.02-.07-.05-.1-.07Z"/>
  <path class="cls-1" d="M29.66,7.37s-.06,.05-.09,.07c-.85,.62-1.71,1.25-2.56,1.87-.02,.02-.04,.03-.07,.05-.1,.06-.21,.06-.31,0-.1-.06-.14-.18-.11-.3,0-.03,.02-.06,.03-.09,.33-1.01,.66-2.01,.99-3.02,0-.03,.02-.06,.03-.09-.02-.04-.05-.05-.08-.07-.72-.52-1.44-1.05-2.17-1.57-.15-.11-.3-.22-.45-.32-.05-.04-.09-.08-.12-.14-.06-.17,.06-.36,.24-.37,.02,0,.05,0,.08,0,1.06,0,2.13,0,3.19,0,.03,0,.07,0,.11,0,.01-.03,.03-.07,.04-.1,.27-.82,.53-1.65,.8-2.47,.06-.19,.12-.38,.18-.57,0-.03,.02-.05,.03-.08C29.46,.06,29.54,0,29.66,0c.11,0,.2,.05,.25,.16,.02,.03,.02,.06,.04,.1,.33,1.01,.65,2.02,.98,3.02,.01,.03,.02,.06,.03,.1,.04,.01,.08,0,.11,0,.48,0,.96,0,1.44,0,.58,0,1.15,0,1.73,0,.03,0,.06,0,.08,0,.12,.01,.21,.07,.25,.19,.04,.11,0,.23-.08,.31-.04,.03-.07,.06-.11,.08-.84,.61-1.68,1.22-2.52,1.83-.03,.02-.06,.04-.09,.06,0,.04,.01,.07,.02,.11,.17,.52,.34,1.04,.51,1.56,.16,.49,.32,.98,.48,1.47,0,.02,.02,.05,.02,.07,.03,.12,0,.22-.1,.29-.09,.07-.22,.08-.32,.02-.02-.01-.04-.03-.05-.04-.86-.62-1.71-1.25-2.57-1.87-.03-.02-.07-.05-.1-.07Z"/>
  <path class="cls-1" d="M42.02,7.37s-.06,.05-.09,.07c-.85,.62-1.71,1.25-2.56,1.87-.02,.02-.04,.03-.07,.05-.1,.06-.21,.06-.31,0-.1-.06-.14-.18-.11-.3,0-.03,.02-.06,.03-.09,.33-1.01,.66-2.01,.99-3.02,0-.03,.02-.06,.03-.09-.02-.04-.05-.05-.08-.07-.72-.52-1.44-1.05-2.17-1.57-.15-.11-.3-.22-.45-.32-.05-.04-.09-.08-.12-.14-.06-.17,.06-.36,.24-.37,.02,0,.05,0,.08,0,1.06,0,2.13,0,3.19,0,.03,0,.07,0,.11,0,.01-.03,.03-.07,.04-.1,.27-.82,.53-1.65,.8-2.47,.06-.19,.12-.38,.18-.57,0-.03,.02-.05,.03-.08C41.82,.06,41.91,0,42.02,0c.11,0,.2,.05,.25,.16,.02,.03,.02,.06,.04,.1,.33,1.01,.65,2.02,.98,3.02,.01,.03,.02,.06,.03,.1,.04,.01,.08,0,.11,0,.48,0,.96,0,1.44,0,.58,0,1.15,0,1.73,0,.03,0,.06,0,.08,0,.12,.01,.21,.07,.25,.19,.04,.11,0,.23-.08,.31-.04,.03-.07,.06-.11,.08-.84,.61-1.68,1.22-2.52,1.83-.03,.02-.06,.04-.09,.06,0,.04,.01,.07,.02,.11,.17,.52,.34,1.04,.51,1.56,.16,.49,.32,.98,.48,1.47,0,.02,.02,.05,.02,.07,.03,.12,0,.22-.1,.29-.09,.07-.22,.08-.32,.02-.02-.01-.04-.03-.05-.04-.86-.62-1.71-1.25-2.57-1.87-.03-.02-.07-.05-.1-.07Z"/>
  <path class="cls-1" d="M54.38,7.37s-.06,.05-.09,.07c-.85,.62-1.71,1.25-2.56,1.87-.02,.02-.04,.03-.07,.05-.1,.06-.21,.06-.31,0-.1-.06-.14-.18-.11-.3,0-.03,.02-.06,.03-.09,.33-1.01,.66-2.01,.99-3.02,0-.03,.02-.06,.03-.09-.02-.04-.05-.05-.08-.07-.72-.52-1.44-1.05-2.17-1.57-.15-.11-.3-.22-.45-.32-.05-.04-.09-.08-.12-.14-.06-.17,.06-.36,.24-.37,.02,0,.05,0,.08,0,1.06,0,2.13,0,3.19,0,.03,0,.07,0,.11,0,.01-.03,.03-.07,.04-.1,.27-.82,.53-1.65,.8-2.47,.06-.19,.12-.38,.18-.57,0-.03,.02-.05,.03-.08C54.18,.06,54.27,0,54.39,0c.11,0,.2,.05,.25,.16,.02,.03,.02,.06,.04,.1,.33,1.01,.65,2.02,.98,3.02,.01,.03,.02,.06,.03,.1,.04,.01,.08,0,.11,0,.48,0,.96,0,1.44,0,.58,0,1.15,0,1.73,0,.03,0,.06,0,.08,0,.12,.01,.21,.07,.25,.19,.04,.11,0,.23-.08,.31-.04,.03-.07,.06-.11,.08-.84,.61-1.68,1.22-2.52,1.83-.03,.02-.06,.04-.09,.06,0,.04,.01,.07,.02,.11,.17,.52,.34,1.04,.51,1.56,.16,.49,.32,.98,.48,1.47,0,.02,.02,.05,.02,.07,.03,.12,0,.22-.1,.29-.09,.07-.22,.08-.32,.02-.02-.01-.04-.03-.05-.04-.86-.62-1.71-1.25-2.57-1.87-.03-.02-.07-.05-.1-.07Z"/>
</svg>