<?xml version="1.0" encoding="UTF-8"?>
<svg id="Capa_1" data-name="Capa 1" xmlns="http://www.w3.org/2000/svg" viewBox="0 0 123.21 83.28">
  <defs>
    <style>
      .cls-1 {
        fill: #000;
        stroke-width: 0px;
      }
    </style>
  </defs>
  <path class="cls-1" d="M91.69,50.88c0,4.16,0,8.24.02,12.31,0,.23.32.57.57.68,1.66.76,3.35,1.44,5,2.21,1.83.86,2.86,2.81,2.59,4.77-.26,1.94-1.73,3.59-3.68,3.88-.89.13-1.85-.1-2.75-.27-.57-.11-1.09-.44-1.75-.72,0,1.53.02,2.94,0,4.35-.04,2.32-1.56,4.32-3.75,4.97-2.16.65-4.55-.19-5.81-2.03-.65-.94-.96-1.99-.95-3.14,0-1.34,0-2.67,0-4.17-.6.26-1.1.49-1.61.7-2.52,1.04-5.23.01-6.24-2.36-1.03-2.43.11-5.09,2.65-6.18,1.52-.65,3.04-1.29,4.54-1.98.28-.13.63-.48.64-.74.04-4.07.03-8.14.03-12.39-.35.19-.58.31-.81.44-3.11,1.79-6.21,3.59-9.34,5.36-.5.28-.65.56-.56,1.14.29,1.74.56,3.49.73,5.25.25,2.59-1.38,4.66-3.89,5.08-2.33.4-4.71-1.22-5.19-3.55-.16-.8-.26-1.61-.41-2.53-1.46.84-2.82,1.65-4.21,2.42-1.8.99-3.62.98-5.36-.1-1.71-1.06-2.55-2.67-2.47-4.67.07-1.93,1.02-3.41,2.68-4.4,1.19-.71,2.4-1.39,3.69-2.13-.47-.33-.84-.59-1.21-.85-2.2-1.58-2.72-4.41-1.21-6.56,1.47-2.09,4.33-2.55,6.52-1.04,1.43.99,2.83,2.02,4.27,2.99.22.15.67.23.88.11,3.49-1.98,6.97-3.99,10.72-6.15-.25-.08-.39-.11-.51-.18-3.35-1.93-6.71-3.86-10.05-5.8-.42-.25-.71-.28-1.12.06-1.26,1.07-2.57,2.07-3.84,3.13-1.89,1.59-4.74,1.43-6.4-.39-1.7-1.86-1.62-4.73.21-6.47.57-.54,1.21-1.02,1.92-1.62-1.33-.77-2.66-1.41-3.84-2.26-.83-.6-1.65-1.36-2.13-2.24-1.12-2.02-.64-4.46.98-6.05,1.67-1.64,4.04-2.01,6.15-.9.98.51,1.93,1.1,2.89,1.65.19.11.39.19.66.32.06-.59.11-1.1.16-1.6.24-2.63,2.4-4.46,5.04-4.25,2.46.2,4.34,2.41,4.19,4.95-.11,1.82-.29,3.64-.39,5.45-.02.28.11.72.31.84,3.58,2.1,7.19,4.16,10.87,6.28.04-.29.09-.5.09-.71,0-3.99,0-7.97.01-11.96,0-.5-.15-.76-.63-.93-1.66-.6-3.32-1.21-4.94-1.88-2.16-.9-3.27-3.21-2.7-5.48.54-2.15,2.74-3.69,5.01-3.36,1.05.15,2.06.61,3.25.98,0-.82-.06-1.6.01-2.37.12-1.26.09-2.61.55-3.75.92-2.31,3.43-3.44,5.84-2.92,2.32.51,4.04,2.61,4.1,5.05.02,1.04,0,2.09,0,3.27.53-.25.93-.45,1.34-.64,2.37-1.1,5.06-.19,6.2,2.09,1.13,2.28.25,4.98-2.08,6.2-1.59.83-3.23,1.56-4.83,2.37-.27.14-.59.51-.59.77-.03,4.3-.02,8.61-.02,12.91,0,.07.05.15.1.32,1.24-.71,2.44-1.4,3.64-2.09,2.57-1.48,5.12-2.97,7.71-4.42.48-.27.61-.56.54-1.08-.22-1.55-.39-3.11-.61-4.66-.38-2.66,1.36-5.1,3.9-5.41,2.69-.33,4.93,1.44,5.27,4.17.06.48.14.95.23,1.6.99-.57,1.9-1.13,2.84-1.64,3.15-1.71,6.83-.14,7.74,3.29.58,2.19-.42,4.56-2.46,5.79-.9.54-1.81,1.06-2.83,1.66.58.42,1.07.78,1.57,1.15,2.13,1.58,2.6,4.41,1.1,6.51-1.47,2.05-4.32,2.52-6.46,1.03-1.5-1.04-2.94-2.16-4.44-3.19-.26-.18-.78-.28-1.03-.14-3.72,2.1-7.41,4.25-11.11,6.39-.09.05-.17.13-.34.27,1.32.76,2.57,1.48,3.82,2.2,2.39,1.38,4.79,2.75,7.17,4.16.5.3.84.26,1.28-.08,1.35-1.04,2.73-2.06,4.12-3.06,2.1-1.52,4.95-1.1,6.48.93,1.49,1.98,1.11,4.82-.88,6.43-.48.39-.99.74-1.59,1.19,1.05.6,2,1.15,2.95,1.7,2.64,1.54,3.6,4.69,2.18,7.21-1.45,2.59-4.61,3.44-7.33,1.96-.99-.54-1.97-1.13-3.07-1.77-.1.72-.18,1.32-.26,1.93-.36,2.64-2.65,4.37-5.31,4.01-2.43-.33-4.16-2.67-3.85-5.21.21-1.73.42-3.45.58-5.18.02-.27-.13-.7-.34-.82-3.63-2.13-7.29-4.23-10.94-6.33-.07-.04-.16-.04-.34-.08Z"/>
  <path class="cls-1" d="M30.86,71.52c0,2.16,0,4.2,0,6.25,0,2.16-1.17,3.33-3.33,3.34-5.41,0-10.83.01-16.24,0-2.86,0-4.58-1.74-4.59-4.58,0-6.89,0-13.79,0-20.68,0-1.06.28-2.01.89-2.89.19-.28.3-.67.31-1.01.03-2.02.09-4.05,0-6.07-.13-2.79.58-5.36,1.88-7.79.88-1.65,1.85-3.26,2.84-4.99-1.1-.11-2.19-.18-3.27-.35-2.39-.37-4.79-.68-7.14-1.21-1.9-.43-2.57-1.84-2.02-3.73.8-2.72,2.88-3.89,5.44-4.47,2.57-.58,5.1-.31,7.57.55,1.53.53,2.03,1.37,1.94,2.99-.04.82-.5,1.69.33,2.57,1.05-1.31,2.28-2.5,3.1-3.91,2.96-5.1,5.83-10.24,8.63-15.43.86-1.59,2.01-2.46,3.74-2.68,3.67-.46,7.33-1.06,11.02-1.33,9.01-.68,18.05-.67,27.08-.48,2.45.05,4.89.15,7.36.29-2.09.5-3.77,1.53-4.86,3.39-1.09,1.85-1.18,3.82-.45,6.04-1.9-2.06-4.04-2.96-6.63-2.48-2.56.48-4.23,2.08-5.23,4.41-5.02-2.05-8.73-1.12-10.8,2.58-1.74,3.1-1.29,8.3,4.01,10.79-1.49,1.86-2.12,3.95-1.51,6.29.61,2.34,2.13,3.91,4.53,4.81-1.4.58-2.44,1.49-4.05,1.42-3.78-.15-7.58-.02-11.37-.07-.95-.01-1.41.39-1.72,1.19-.8,2.08-.66,4.19-.23,6.31.14.7.3,1.39.47,2.08.49,1.94,2.03,3.25,4.04,3.33,1.59.07,3.19.03,4.79.04.31,0,.62,0,1.03,0-1.63,3.74-1.22,7.07,1.98,9.58,3.14,2.47,6.43,1.95,9.65-.28.85,2.2,2.24,3.82,4.48,4.53,2.24.71,4.32.34,6.29-1.07v2.68H30.86ZM32.66,43.36c.08-1.79-.44-2.5-1.82-2.78-4.37-.91-8.74-1.81-13.12-2.71-1.88-.39-2.95.38-2.81,2.3.2,2.74.56,5.48,1.02,8.2.16.93.79,1.81,1.3,2.65.2.32.64.63,1.01.69,3.65.55,7.31,1.09,10.98,1.53,1.47.18,2.64-.94,2.78-2.42.24-2.61.45-5.22.65-7.46Z"/>
</svg>