<?xml version="1.0" encoding="UTF-8"?>
<svg id="Capa_1" data-name="Capa 1" xmlns="http://www.w3.org/2000/svg" viewBox="0 0 408.52 408.76">
  <defs>
    <style>
      .cls-1 {
        fill: #000;
        stroke-width: 0px;
      }
    </style>
  </defs>
  <path class="cls-1" d="M324.68,408.76c-7.18-1.75-13.91-4.38-19.09-9.97-6.4-6.9-8.89-15.16-8.89-24.46.05-58.81.03-117.62.03-176.42,0-14.9-.11-29.8.03-44.7.16-16.37,11.12-29.68,26.15-32.1,20.04-3.23,36.97,10.81,37.66,31.29.13,3.83.02,7.67.02,11.74h23.88v-28.51h24.05v52.71h-47.91c0,2.13,0,3.71,0,5.29,0,60.24-.02,120.49.02,180.73,0,8.82-2.22,16.76-8.1,23.54-5.29,6.12-12.28,9.01-19.87,10.86h-7.98Z"/>
  <path class="cls-1" d="M55.6,408.76c-7.19-1.75-13.91-4.39-19.09-9.97-6.4-6.9-8.89-15.17-8.88-24.47.05-60.29.03-120.59.03-180.88v-4.98H0v-24.02h27.66c0-4.25-.1-8.08.02-11.9.79-25.37,26.48-40.01,48.26-27.33,10.69,6.22,15.43,16.14,15.56,28.31.11,10.38.02,20.76.02,31.14,0,61.89-.31,123.78.19,185.67.15,18.64-7.23,33.91-28.13,38.43h-7.98Z"/>
  <path class="cls-1" d="M149.02,408.76c-7.19-1.74-13.91-4.39-19.09-9.97-6.41-6.9-8.89-15.16-8.89-24.46.05-58.81.03-117.62.03-176.43,0-14.9-.11-29.8.03-44.71.16-16.37,11.13-29.69,26.16-32.1,19.75-3.17,36.48,10.38,37.63,30.5.05.93.05,1.86.05,2.79,0,73.44,0,146.89,0,220.33,0,13.84-5.64,24.42-18.22,30.73-3.03,1.52-6.47,2.22-9.73,3.3h-7.98Z"/>
  <path class="cls-1" d="M236.85,408.76c-7.18-1.75-13.91-4.38-19.09-9.97-6.4-6.9-8.89-15.16-8.89-24.46.05-58.81.03-117.62.03-176.43,0-14.9-.11-29.8.03-44.71.16-16.37,11.13-29.68,26.16-32.1,19.74-3.18,36.48,10.38,37.63,30.5.05.93.05,1.86.05,2.79,0,73.44,0,146.89,0,220.33,0,13.84-5.64,24.42-18.22,30.73-3.03,1.52-6.47,2.22-9.73,3.3h-7.98Z"/>
  <path class="cls-1" d="M102.46,96.3h-23.79c-.61-9.53,2.11-17.96,6.72-25.91.6-1.03,1.23-2.06,1.93-3.02,9.43-12.89,8.92-25.46.05-38.68-3.81-5.69-5.78-12.68-8.09-19.26-.97-2.78-.65-6.01-.94-9.31h23.42c.11.11.45.3.45.48.08,7.87,4.3,14.01,8.27,20.32,8.79,13.96,9.83,28.92,4.94,44.38-1.14,3.62-3.08,7.07-5.09,10.32-3.91,6.33-8.36,12.38-7.88,20.68Z"/>
  <path class="cls-1" d="M150.44,96.37h-23.8c-.75-9.58,2.07-18.08,6.75-26.1,1.34-2.29,2.88-4.47,4.25-6.74,6.21-10.27,6.41-20.66-.11-30.77-5.98-9.28-11.13-18.74-11.07-30.18,0-.77,0-1.53,0-2.5h23.9c-.94,10.45,6.9,17.28,10.78,25.86,7.53,16.66,6.92,32.98-2.32,48.8-3.93,6.73-9.1,12.89-8.37,21.63Z"/>
  <path class="cls-1" d="M174.13.04h24.13c-.67,9.04,5.06,15.35,8.99,22.5,9.36,17.03,9.36,34.28-.01,51.3-3.94,7.15-9.64,13.48-8.99,22.48h-23.75c-.66-9.63,2.13-18.16,6.86-26.18,1.35-2.29,2.89-4.46,4.25-6.74,6.1-10.15,6.2-20.39-.04-30.45-4.57-7.36-9.28-14.6-10.55-23.4-.43-3.01-.58-6.06-.89-9.52Z"/>
  <path class="cls-1" d="M222.37,96.21c-.67-11.99,3.71-21.96,10.17-31.16,4.52-6.43,6.7-13.59,4.94-21.08-1.26-5.39-4.01-10.59-6.88-15.4-4.92-8.28-8.39-16.85-8.35-26.61,0-.53.07-1.05.13-1.83h23.78c-.56,8.85,4.95,15.11,8.86,22.14,9.84,17.72,9.56,35.52-.7,53.01-3.81,6.51-8.78,12.47-8.03,20.93h-23.92Z"/>
  <path class="cls-1" d="M269.98,0h24.1c-1,10.47,6.82,17.28,10.72,25.83,7.72,16.95,6.94,33.51-2.62,49.49-3.88,6.49-8.6,12.55-8.09,20.91h-23.8c-.59-9.62,2.18-18.18,6.96-26.2,1.22-2.05,2.55-4.04,3.82-6.07,6.6-10.48,6.63-21.02.04-31.46-4.56-7.21-9.07-14.42-10.3-23.07-.43-3-.54-6.04-.84-9.44Z"/>
</svg>