<?xml version="1.0" encoding="UTF-8"?>
<svg id="Capa_1" data-name="Capa 1" xmlns="http://www.w3.org/2000/svg" viewBox="0 0 121.16 113.1">
  <defs>
    <style>
      .cls-1 {
        fill: #000;
        stroke-width: 0px;
      }
    </style>
  </defs>
  <path class="cls-1" d="M44.43,32.31v-8.01h9.31v-10.84c-3.74,0-7.42,0-11.11,0-4.22,0-6.27-2.07-6.29-6.3,0-.62-.02-1.23,0-1.85.13-2.97,2.28-5.27,5.25-5.28,12.68-.05,25.35-.02,38.03-.02.28,0,.57.01.83.09,3.78,1.12,4.67,3.39,4.33,8.31-.19,2.83-2.42,4.99-5.33,5.03-3.97.06-7.95.02-12.04.02v10.72h9.24v8.13c.78,0,1.37,0,1.97,0,12.06,0,24.12,0,36.18,0,4.32,0,6.35,2.04,6.35,6.4,0,22.72,0,45.44,0,68.15,0,4.13-2.09,6.23-6.19,6.23-36.23,0-72.46,0-108.69,0-4.21,0-6.27-2.08-6.27-6.31,0-22.72,0-45.44,0-68.15,0-4.27,2.03-6.32,6.26-6.32,12,0,24,0,36.01,0,.66,0,1.32,0,2.16,0ZM8.15,104.9h104.79V40.48H8.15v64.41Z"/>
  <path class="cls-1" d="M107.62,44.55v56.35H13.59v-56.35h94.03ZM83.98,67.82c1.35-.37,2.54-.67,3.71-1.01,2-.59,2.96-2.11,2.41-3.74-.52-1.55-2.31-2.18-4.23-1.45-1.29.49-2.57,1-3.92,1.53-.32-.79-.54-1.42-.84-2.02-1.5-2.94-2.93-5.91-4.57-8.77-1.03-1.79-2.61-2.64-4.89-2.59-6.61.16-13.26.39-19.84-.06-4.65-.31-7.28,1.59-9.06,5.48-.44.97-.98,1.89-1.41,2.86-.75,1.67-1.45,3.36-2.2,5.11-.73-.24-1.36-.44-1.99-.65-.69-.23-1.36-.51-2.06-.72-1.98-.62-3.59,0-4.07,1.52-.51,1.63.51,3.12,2.54,3.66,1.16.32,2.33.62,3.47.92-.25,1.56-.62,2.93-.66,4.3-.1,3.03,0,6.06-.05,9.09-.03,1.64.45,3.2,1.81,3.94,2.23,1.22,2.49,3.02,2.25,5.17-.05.44-.15.98.04,1.33.42.8.84,1.8,1.56,2.2,2.42,1.36,5.56.2,6.69-2.31h23.9c.42,1.57,1.27,2.64,3.02,2.65.84,0,1.69.04,2.52-.02,1.58-.11,2.55-1.11,2.64-2.72.06-1.06.08-2.14,0-3.2-.08-1.01.24-1.63,1.13-2.18,1.67-1.04,3-2.45,2.91-4.6-.18-4.51.63-9.08-.81-13.71ZM98.32,49.83c-1.44-.03-2.7,1.19-2.72,2.64-.02,1.45,1.18,2.7,2.63,2.73,1.44.02,2.7-1.19,2.72-2.63.02-1.45-1.18-2.7-2.63-2.73Z"/>
  <path class="cls-1" d="M41.95,65.9c1.63-3.66,3.1-7.03,4.63-10.36.56-1.21,1.49-1.73,2.95-1.72,7.39.08,14.78,0,22.17.08.82,0,2.06.44,2.38,1.05,1.8,3.5,3.38,7.11,5.15,10.95h-37.28Z"/>
  <path class="cls-1" d="M52.65,82.17h15.88v3.9h-15.88v-3.9Z"/>
  <path class="cls-1" d="M45.98,79.25c-1.19-.27-2.5-.41-3.67-.88-1.42-.57-2.27-1.73-1.86-3.35.39-1.55,1.57-2.39,3.12-2.29,2.79.18,4.95,1.66,6.62,3.81.74.95.19,1.77-.81,2.08-1.06.32-2.19.41-3.4.63Z"/>
  <path class="cls-1" d="M74.72,79.11c-.83-.16-1.94-.28-3-.6-1.19-.36-1.46-1.26-.69-2.21,1.53-1.87,3.5-3.17,5.89-3.61,1.82-.33,3.42.73,3.79,2.29.35,1.48-.59,2.88-2.39,3.54-.26.1-.53.19-.8.23-.83.12-1.66.22-2.79.36Z"/>
</svg>