<?xml version="1.0" encoding="UTF-8"?>
<svg id="Capa_1" data-name="Capa 1" xmlns="http://www.w3.org/2000/svg" viewBox="0 0 91.83 95.88">
  <defs>
    <style>
      .cls-1 {
        fill: #000;
        stroke-width: 0px;
      }
    </style>
  </defs>
  <path class="cls-1" d="M65.45,21.28c-2.36,2.58-4.58,4.98-6.76,7.42-.38.43-.62.98-.94,1.47-.11.16-.25.31-.39.44-.43.42-.96.77-1.29,1.25-1.01,1.49-1.94,3.03-2.91,4.55-.07.11-.27.18-.41.21-5.69,1.08-9.97,5.28-11.25,10.96-.83,3.69-2.84,6.53-6.26,8.31-1.16.6-1.77,1.86-1.52,3.11.25,1.24,1.31,2.25,2.6,2.27,5.11.1,10.15-.36,14.91-2.42,4.77-2.07,8.27-5.4,9.81-10.48.42-1.39.49-2.88.74-4.32.04-.25.18-.53.36-.71,1.29-1.23,2.6-2.44,3.91-3.65.06-.06.13-.12.16-.19.91-1.81,2.76-2.85,3.76-4.59.01-.03.07-.03.26-.1-.24,1.43-.44,2.79-.71,4.13-.64,3.23-1.99,6.21-3.24,9.24-.57,1.36-1.05,2.8-1.27,4.25-.46,3.15,1.82,6.35,4.83,7.03,1.07.24,2.12.12,3.16-.24,1.77-.62,3.57-.9,5.44-.6,3.71.6,5.94,3.52,5.56,7.48-.15,1.63-.63,3.17-1.39,4.61-5.25,9.92-12.77,17.48-23.1,22.09-6.23,2.79-12.74,3.59-19.49,2.78-6.6-.79-12.87-2.62-18.8-5.64-6.84-3.48-11.81-8.81-15.52-15.42C1.46,66.93-.5,58.8.11,50.11c.57-8.28,3.47-15.75,8.08-22.59,2.9-4.3,6.21-8.25,10.41-11.35,7.14-5.27,15.15-7.37,23.95-6.39,6.97.78,13.29,3.25,18.78,7.67,1.44,1.16,2.72,2.53,4.11,3.84ZM36.77,86.36c3.53,0,6.37-2.83,6.37-6.34,0-3.51-2.87-6.38-6.36-6.37-3.47,0-6.33,2.86-6.34,6.33-.01,3.52,2.83,6.37,6.34,6.38ZM13.88,58.29c3.52.02,6.36-2.81,6.37-6.33,0-3.5-2.81-6.35-6.28-6.37-3.51-.02-6.39,2.81-6.42,6.31-.03,3.5,2.82,6.37,6.33,6.39ZM38.26,17.94c-3.49,0-6.33,2.81-6.34,6.29-.01,3.54,2.78,6.37,6.31,6.39,3.5.03,6.38-2.83,6.39-6.33.02-3.49-2.84-6.35-6.36-6.36ZM27.32,33.37c.07-3.46-2.74-6.37-6.22-6.43-3.5-.07-6.38,2.71-6.47,6.25-.09,3.45,2.72,6.39,6.19,6.45,3.56.07,6.42-2.69,6.5-6.27ZM20.37,63.75c-3.49.02-6.34,2.86-6.32,6.32.01,3.57,2.85,6.4,6.4,6.37,3.49-.03,6.31-2.87,6.31-6.35,0-3.5-2.88-6.36-6.38-6.34Z"/>
  <path class="cls-1" d="M65.16,36.47c-.19-.11-.6-.27-.92-.54-1.31-1.08-2.6-2.19-3.9-3.29-.98-.83-1.03-1.68-.15-2.64,6.51-7.12,13.03-14.24,19.54-21.36,2.41-2.63,4.81-5.26,7.22-7.89.87-.95,1.62-.99,2.61-.16.5.42.99.84,1.49,1.26.95.81,1.02,1.57.25,2.56-3.62,4.62-7.24,9.25-10.87,13.87-4.53,5.78-9.06,11.56-13.58,17.34-.38.49-.8.86-1.7.86Z"/>
  <path class="cls-1" d="M39.09,59.26c-.95,0-1.7,0-2.46,0-.48,0-.82-.2-.92-.68-.09-.45.12-.75.52-.97,3.99-2.14,6.34-5.51,7.29-9.89,1.02-4.68,5.03-8.45,9.76-9.17.94-.14,1.73-.03,2.47.68,1.06,1.01,2.21,1.93,3.35,2.86.47.38.66.82.65,1.41-.09,5.76-2.79,9.93-7.74,12.71-3.01,1.69-6.32,2.43-9.73,2.79-1.13.12-2.26.18-3.2.25Z"/>
  <path class="cls-1" d="M60.41,41.97c-.26-.15-.5-.25-.68-.4-1.41-1.18-2.82-2.37-4.22-3.57-.54-.47-.59-.81-.19-1.42.81-1.22,1.62-2.44,2.43-3.66.47-.71.92-.78,1.55-.24,1.68,1.42,3.36,2.84,5.03,4.26.65.55.66.99.04,1.57-1.07,1-2.14,2-3.22,2.99-.21.19-.48.3-.74.47Z"/>
</svg>