<?xml version="1.0" encoding="UTF-8"?>
<svg id="Capa_1" data-name="Capa 1" xmlns="http://www.w3.org/2000/svg" viewBox="0 0 91.31 102.44">
  <defs>
    <style>
      .cls-1 {
        fill: #000;
        stroke-width: 0px;
      }
    </style>
  </defs>
  <path class="cls-1" d="M71.07,0c.07,0,.13,0,.2,0,5.28,6.01,10.54,12.05,15.86,18.03,2.84,3.19,4.18,6.86,4.17,11.13-.04,13.94-.01,27.89-.02,41.83,0,4.94.07,9.88-.03,14.81-.13,6.36-5.58,11.6-11.94,11.65-6.19.05-11.61-4.77-12.02-10.98-.27-4.05-.13-8.13-.16-12.2-.02-3.2.02-6.41-.06-9.61-.05-1.91-1.44-3.58-3.28-3.93-1.25-.23-2.56-.16-3.97-.23v41.93H0c0-.31,0-.57,0-.83,0-28.12-.02-56.25,0-84.37C.02,8.59,6.67,1.86,15.32,1.8c9.64-.07,19.28-.01,28.92-.02,2.2,0,4.33.39,6.3,1.36,6.01,2.94,9.04,7.81,9.07,14.47.05,11.78.02,23.55.02,35.33v1.38c1.54,0,2.99-.17,4.38.03,5.47.8,9.24,5.25,9.26,10.85.02,6.51,0,13.01.01,19.52,0,.7.04,1.41.18,2.09.76,3.48,4.44,5.38,7.69,3.93,2.55-1.14,3.54-3.29,3.54-5.98,0-14.75,0-29.49,0-44.24,0-.28-.03-.56-.05-.88-8.22,4.36-15.7-.6-17.66-6.71-1-3.12-.82-6.2.7-9.12,2.08-3.99,5.47-6.11,10.03-6.65-3.8-4.36-7.5-8.6-11.25-12.89.54-.49,1.06-.94,1.57-1.42C69.05,1.9,70.06.95,71.07,0ZM10.61,38.95h39.24c.04-.22.08-.37.08-.53,0-6.14.05-12.28-.02-18.42-.04-3.19-2.16-5.15-5.4-5.16-9.48-.02-18.95-.01-28.43,0-3.41,0-5.47,2.09-5.48,5.51,0,3.3,0,6.61,0,9.91,0,2.87,0,5.73,0,8.69ZM29.95,84.32c1.79,0,3.22-.39,5.06-1.35,5.5-2.87,6.79-10.45,2.5-14.92-1.96-2.04-4.03-3.99-6.07-5.95-.96-.92-2.37-.96-3.34-.04-2,1.91-4.05,3.79-5.9,5.83-2.19,2.42-2.91,5.37-2.27,8.56,1.04,5.17,5.79,7.85,10.02,7.88ZM78.72,23.45c-3.11-.03-5.73,2.55-5.8,5.7-.07,3.12,2.63,5.85,5.77,5.84,3.03,0,5.77-2.76,5.78-5.78,0-3.11-2.61-5.74-5.74-5.76Z"/>
</svg>