<?xml version="1.0" encoding="UTF-8"?>
<svg id="Capa_1" data-name="Capa 1" xmlns="http://www.w3.org/2000/svg" viewBox="0 0 202.49 202.49">
  <defs>
    <style>
      .cls-1 {
        fill: #000;
        stroke-width: 0px;
      }
    </style>
  </defs>
  <path class="cls-1" d="M202.49,101.25c0,56.26-45.21,101.35-101.5,101.24C44.98,202.37,0,157.27,0,101.22,0,44.98,45.24-.12,101.51,0c56.04.12,100.98,45.18,100.98,101.25ZM101.65,22.47c-1.16,0-2.33-.08-3.48.02-3.14.26-6.33.32-9.4.94-32.31,6.45-54.44,25.11-63.25,56.87-8.88,31.99.53,59.51,25.44,81.52,7.55,6.67,15.71,5.74,22.04-2.07,15.65-19.34,40.72-19.45,56.34-.26,6.59,8.1,14.42,8.87,22.41,2.2,25.38-21.2,34.81-55.68,23.76-86.88-11-31.06-40.68-52.13-73.85-52.33ZM101.11,179.56c4.31,0,8.61,0,12.92,0,4.32,0,6.9-2.18,7.45-6.39.47-3.59-2.5-7.04-6.67-7.16-9.1-.27-18.22-.27-27.31.03-3.93.13-6.34,2.8-6.5,6.85-.14,3.62,3.03,6.51,7.2,6.64,4.3.13,8.61.03,12.92.03Z"/>
  <path class="cls-1" d="M67.53,66.05c8.67,6.87,17.24,13.88,26.09,20.52,2.14,1.6,5.16,2.47,7.88,2.75,5.22.54,10.11,3.52,10.81,8.57.49,3.57,2.23,5.52,4.77,7.5,5.99,4.68,6,6.17.52,11.65-.59.58-1.14,1.2-1.75,1.76-3.58,3.33-6.11,3.32-9.06-.61-2.44-3.25-5.04-5.56-9.29-6.48-4.99-1.09-7.45-5.53-7.93-10.74-.23-2.56-1.11-5.42-2.62-7.46-5.82-7.83-12.02-15.36-18.06-23.03-.86-1.09-1.56-2.31-2.34-3.47.32-.32.65-.64.97-.96ZM107.15,102.31c.04-.72.07-1.43.11-2.15-1.86-1.46-3.53-3.68-5.62-4.19-3.23-.78-5.79,1.65-5.44,4.68.22,1.95,2.8,4.88,4.57,5.08,1.98.22,4.24-2.16,6.39-3.42Z"/>
  <path class="cls-1" d="M105.81,36.98c-1.82,2.46-2.96,5.51-4.43,5.67-3.47.39-3.21-2.92-3.17-5.33.04-2.49-.72-6.04,3.11-5.88,1.39.06,2.64,3.15,4.49,5.54Z"/>
  <path class="cls-1" d="M37.18,105.79c-2.48-1.81-5.53-2.91-5.73-4.39-.46-3.49,2.84-3.26,5.26-3.23,2.51.03,6.03-.65,5.95,3.11-.03,1.36-3.12,2.66-5.48,4.51Z"/>
  <path class="cls-1" d="M165.7,105.79c-2.54-1.79-5.72-2.93-5.84-4.32-.32-3.82,3.29-3.59,5.71-3.17,2.03.35,3.86,1.93,5.77,2.96-1.67,1.34-3.34,2.69-5.64,4.54Z"/>
  <path class="cls-1" d="M74.91,47.95c-2.12,1.44-4.27,3.09-4.39,2.96-2.05-2.35-4.03-4.82-5.54-7.53-.26-.46,1.73-2.17,2.67-3.3,2.22,2.4,4.44,4.81,7.26,7.87Z"/>
  <path class="cls-1" d="M139.16,43.34c-2.84,3.01-5.06,5.35-7.27,7.69-.99-.93-2.96-2.44-2.8-2.71,1.64-2.86,3.63-5.52,5.52-8.24,1.18.84,2.36,1.69,4.56,3.26Z"/>
  <path class="cls-1" d="M43.39,63.34c2.98,2.85,5.31,5.08,7.64,7.3-.94.98-2.46,2.94-2.74,2.78-2.85-1.65-5.5-3.64-8.2-5.54.86-1.17,1.71-2.35,3.31-4.54Z"/>
  <path class="cls-1" d="M164.33,67.96c-4.16,2.38-6.93,4.17-9.91,5.44-.47.2-1.94-1.98-2.95-3.06,2.53-1.85,4.94-3.92,7.68-5.38.66-.35,2.41,1.33,5.19,3Z"/>
  <path class="cls-1" d="M40.09,135.62c-.05-3.39,7.16-7.72,9.24-6.17.91.68,1.67,3.33,1.38,3.53-2.45,1.77-5.07,3.38-7.85,4.54-.64.27-2.1-1.41-2.78-1.9Z"/>
  <path class="cls-1" d="M154.83,127.59c2.94,2.89,5.26,5.17,7.58,7.46-1.19.87-2.97,2.75-3.48,2.45-2.66-1.55-5.04-3.62-7.34-5.7-.08-.08,1.67-2.18,3.24-4.21Z"/>
</svg>