<?xml version="1.0" encoding="UTF-8"?>
<svg id="Capa_1" data-name="Capa 1" xmlns="http://www.w3.org/2000/svg" viewBox="0 0 85.73 78.03">
  <defs>
    <style>
      .cls-1 {
        fill: #000;
        stroke-width: 0px;
      }
    </style>
  </defs>
  <path class="cls-1" d="M85.73,14.57v38.51c-.87-.15-1.75-.43-2.62-.44-4.74-.04-9.49-.06-14.23,0-4.71.06-8.36,3.47-8.46,8.17-.12,5.72-.24,11.46.12,17.22h-.76c-17.91,0-35.83,0-53.74,0C2.14,78.03,0,75.88,0,71.96,0,53.35,0,34.74,0,16.13c0-.45,0-.9.06-1.34.3-2.34,1.99-4.36,4.24-4.55,2.4-.21,4.83-.05,7.26-.05.81,4.45,2.57,6.34,6.16,6.51,1.42.07,2.78-.24,3.96-1.08,1.9-1.35,2.67-3.27,2.65-5.51h12.13c.16,4.63,3.24,6.54,6.26,6.59,1.51.02,2.92-.35,4.14-1.31,1.71-1.35,2.34-3.18,2.37-5.27h12.16c0,4.01,2.72,6.43,6.01,6.58,1.48.07,2.89-.23,4.12-1.11,1.87-1.34,2.61-3.25,2.62-5.49,2.27,0,4.44-.05,6.61.03.7.02,1.42.29,2.07.58,1.65.75,2.44,2.2,2.91,3.87ZM42.36,28.25c-4.85,0-9.7,0-14.55,0-1.42,0-2.84-.02-4.27.02-1.17.03-2.03.71-2.35,1.79-.53,1.74.77,3.24,2.84,3.24,12.16,0,24.31,0,36.47,0,.39,0,.78-.04,1.16-.14,1.09-.29,1.82-1.3,1.81-2.43-.01-1.09-.73-2.09-1.79-2.36-.42-.11-.88-.11-1.33-.11-5.99,0-11.99,0-17.98,0ZM42.28,42.13c-5.75,0-11.5,0-17.25,0-.59,0-1.18-.02-1.76.05-1.01.11-1.69.68-2.04,1.63-.66,1.8.65,3.38,2.81,3.38,12.14,0,24.28,0,36.42,0,.39,0,.78-.04,1.16-.13,1.06-.27,1.8-1.24,1.83-2.33.03-1.12-.7-2.19-1.77-2.46-.45-.12-.94-.12-1.41-.12-6,0-12,0-18,0ZM32.9,56c-1.81,0-3.63,0-5.44,0-1.42,0-2.85-.05-4.27.07-1.6.13-2.57,1.73-2.08,3.25.37,1.14,1.32,1.74,2.84,1.75,5.92,0,11.83,0,17.75,0,.33,0,.67-.02,1-.09,1.5-.3,2.35-1.82,1.85-3.26-.39-1.13-1.29-1.7-2.77-1.7-2.96-.01-5.92,0-8.87,0Z"/>
  <path class="cls-1" d="M85.73,59.11c-.46.65-.84,1.37-1.39,1.93-5.22,5.27-10.48,10.5-15.73,15.74-.33.33-.68.68-1.09.89-1.44.77-3.15-.28-3.21-1.97-.05-1.34-.01-2.68-.01-4.01,0-3.4,0-6.8,0-10.21,0-3.07,1.82-4.89,4.88-4.9,4.46,0,8.92,0,13.38,0,2.12,0,2.46.23,3.17,2.2v.33Z"/>
  <path class="cls-1" d="M46.19,6.85c0,1.2.02,2.4,0,3.59-.04,1.98-1.3,3.22-3.27,3.24-2,.03-3.34-1.22-3.37-3.23-.03-2.42-.04-4.85,0-7.27C39.59,1.18,40.9-.02,42.95,0c1.96.02,3.21,1.26,3.24,3.26.02,1.2,0,2.39,0,3.59Z"/>
  <path class="cls-1" d="M64.46,6.78c0-1.23-.02-2.45,0-3.68.03-1.83,1.29-3.06,3.13-3.1,2.03-.05,3.39,1.03,3.44,2.92.08,2.61.08,5.24,0,7.85-.06,1.85-1.47,2.97-3.39,2.91-1.9-.06-3.15-1.29-3.18-3.15-.02-1.25,0-2.51,0-3.76Z"/>
  <path class="cls-1" d="M21.28,6.85c0,1.23.02,2.45,0,3.68-.03,1.9-1.31,3.13-3.26,3.16-1.95.02-3.29-1.16-3.33-3.07-.05-2.53-.05-5.07,0-7.6C14.73,1.11,16.05-.02,18.06,0c1.9.02,3.18,1.23,3.21,3.09.02,1.25,0,2.51,0,3.76Z"/>
</svg>