<?xml version="1.0" encoding="UTF-8"?>
<svg id="Capa_1" data-name="Capa 1" xmlns="http://www.w3.org/2000/svg" viewBox="0 0 101.9 97.47">
  <defs>
    <style>
      .cls-1 {
        fill: #000;
        stroke-width: 0px;
      }
    </style>
  </defs>
  <path class="cls-1" d="M0,53.89c.41-1.56.71-3.16,1.25-4.67.84-2.36,2.21-4.4,4.14-6.23.31.67.57,1.23.83,1.8,2.61,5.64,5.22,11.28,7.81,16.94.17.36.24.95.06,1.26-1.59,2.75-2.24,5.71-2.14,8.85,0,.16-.02.33-.04.61-1.82-.59-3.42-1.49-4.87-2.64-3.87-3.04-6.21-6.98-6.86-11.89-.02-.16-.11-.3-.17-.45,0-1.19,0-2.39,0-3.58Z"/>
  <path class="cls-1" d="M35.64,61.65c-4.38,0-8.59-.1-12.79.05-1.72.06-2.5-.47-3.2-2.04-2.89-6.47-5.95-12.86-8.97-19.27-.54-1.14-.65-2.25-.27-3.46.76-2.43,1.42-4.9,2.2-7.32.15-.46.57-.97,1.01-1.18,9.74-4.58,19.49-9.12,29.24-13.69.63-.3,1.15-.28,1.77,0,2.28.99,4.56,1.97,6.87,2.88.43.17,1.05.16,1.47-.02,2.2-.91,4.36-1.94,6.56-2.85.45-.19,1.12-.21,1.56-.01,9.8,4.53,19.58,9.09,29.35,13.69.43.2.85.72,1,1.18.74,2.3,1.33,4.65,2.1,6.94.51,1.49.33,2.8-.33,4.2-2.67,5.62-5.29,11.27-7.92,16.91-.53,1.14-1.04,2.29-1.62,3.41-.13.26-.51.56-.77.56-5.44.03-10.88.02-16.32.01-.05,0-.11-.05-.23-.11.14-.32.27-.66.42-.98,3.4-7.18,6.76-14.38,10.2-21.55,3.12-6.49-1.27-12.44-7.46-13.12-3.4-.37-6.85,1.69-8.41,5.03-.31.66-.64.9-1.39.9-5.87-.04-11.74-.03-17.61,0-.68,0-1.03-.18-1.34-.84-1.98-4.35-7-6.28-11.37-4.44-4.48,1.89-6.75,7.13-4.82,11.58,1.8,4.16,3.84,8.22,5.77,12.32,1.74,3.68,3.48,7.36,5.3,11.21Z"/>
  <path class="cls-1" d="M50.97,85.53c11.77,0,23.54,0,35.3,0,2.6,0,3.67,1.08,3.67,3.68,0,1.59,0,3.18,0,4.77,0,2.34-1.13,3.48-3.47,3.48-11.17,0-22.34,0-33.51,0-12.43,0-24.86,0-37.29,0-2.68,0-3.72-1.05-3.72-3.73,0-1.59,0-3.18,0-4.77,0-2.27,1.16-3.43,3.42-3.43,11.87,0,23.74,0,35.6,0Z"/>
  <path class="cls-1" d="M83.97,79.51H17.98c-.03-.25-.07-.5-.07-.75,0-2.62-.01-5.24,0-7.86.01-2.08,1.2-3.28,3.27-3.28,5.7-.01,11.4-.01,17.11.02.37,0,.85.21,1.08.49,6.05,7.17,15.97,7.03,22.1.99,1.23-1.21,2.38-1.55,3.96-1.53,5,.07,10.01.02,15.02.03,2.4,0,3.52,1.13,3.53,3.53,0,2.75,0,5.5,0,8.36Z"/>
  <path class="cls-1" d="M14.92,21.16c-.74-1.57-1.46-3.05-2.13-4.56-.24-.55-.46-.82-1.16-.67-1.43.32-2.8-.54-3.3-1.91-.49-1.32,0-2.79,1.28-3.51.98-.55,2.02-.99,3.04-1.47C18.82,6.16,24.99,3.27,31.18.41c2.18-1.01,4.33.08,4.54,2.28.13,1.32-.52,2.28-1.67,2.99.42.93.84,1.82,1.25,2.72.4.86.8,1.73,1.23,2.68-7.23,3.37-14.38,6.71-21.62,10.08Z"/>
  <path class="cls-1" d="M91.62,15.84c-.83,1.76-1.64,3.48-2.5,5.32-7.24-3.38-14.42-6.72-21.63-10.09.84-1.83,1.65-3.57,2.47-5.34-1.2-.89-1.97-1.94-1.57-3.48.43-1.69,2.12-2.63,3.78-2.1.47.15.92.37,1.37.58,6.72,3.13,13.44,6.26,20.16,9.38,1.01.47,1.8,1.09,2.09,2.22.51,1.99-1.22,3.95-3.25,3.67-.29-.04-.58-.1-.92-.17Z"/>
  <path class="cls-1" d="M68.07,43.73c-.09.22-.16.44-.25.64-1.14,2.41-2.29,4.82-3.49,7.35-3.13-5.06-7.56-7.84-13.39-7.93-5.91-.09-10.29,2.72-13.36,7.97-1.31-2.77-2.56-5.39-3.81-8.04,1.06-.34,2.09-.58,3.04-.99,1.91-.82,3.25-2.26,4.09-4.14.26-.58.52-.85,1.21-.84,5.9.04,11.8.02,17.69.02.46,0,.85-.04,1.11.54,1.33,2.98,3.64,4.71,6.85,5.27.09.02.17.08.31.15Z"/>
  <path class="cls-1" d="M60.09,58.71c-.02,4.75-4.44,8.94-9.39,8.89-4.88-.04-8.91-4.1-8.9-8.96,0-4.92,4.11-8.99,9.01-8.93,5.01.06,9.31,4.22,9.29,9ZM50.76,61.64c1.74,0,3.38-1.47,3.35-3.01-.02-1.55-1.67-2.97-3.42-2.94-1.63.02-2.95,1.38-2.93,3,.02,1.62,1.37,2.96,3,2.95Z"/>
  <path class="cls-1" d="M90.18,72.43c-.29-2.05-.3-4.06-.91-5.87-.56-1.66-.26-2.91.44-4.37,2.64-5.52,5.18-11.09,7.76-16.65.14-.3.29-.58.5-1.02,3.59,4.78,4.8,9.95,3.31,15.62-1.58,5.98-5.43,10-11.09,12.29Z"/>
  <path class="cls-1" d="M68.98,31.81c1.71,0,3.01,1.28,3.05,3.01.03,1.57-1.38,2.96-3.01,2.94-1.62-.01-2.96-1.39-2.94-3.01.01-1.59,1.35-2.94,2.9-2.94Z"/>
  <path class="cls-1" d="M32.86,37.76c-1.61,0-3-1.36-3-2.96,0-1.6,1.37-2.98,2.97-2.98,1.45,0,3.02,1.44,3.01,2.75-.01,1.82-1.29,3.19-2.98,3.19Z"/>
</svg>