<?xml version="1.0" encoding="UTF-8"?>
<svg id="Capa_1" data-name="Capa 1" xmlns="http://www.w3.org/2000/svg" viewBox="0 0 83.83 83.82">
  <defs>
    <style>
      .cls-1 {
        fill: #000;
        stroke-width: 0px;
      }
    </style>
  </defs>
  <path class="cls-1" d="M10.11,0c.4,0,.79,0,1.19,0,.29.03.58.06.87.1,2.52.38,4.68,1.45,6.4,3.35,2.52,2.79,3.42,6.07,2.55,9.71-.94,3.94-3.45,6.53-7.29,7.81-.15.05-.2.1-.2.27,0,5.85,0,11.7,0,17.55,0,.17.05.22.22.22,8.31,0,16.62,0,24.92,0,.16,0,.22-.04.22-.21,0-5.85,0-11.7,0-17.55,0-.15-.05-.2-.19-.26-.68-.27-1.39-.49-2.01-.85-3.79-2.2-5.69-5.51-5.58-9.9.06-2.29.86-4.35,2.29-6.15,1.79-2.25,4.13-3.56,6.97-3.97.27-.04.54-.07.81-.1.37,0,.74,0,1.11,0,.07.01.13.03.2.03,1.41.09,2.77.42,4.03,1.07,3.35,1.73,5.33,4.47,5.89,8.2.27,1.83.05,3.63-.65,5.34-1.29,3.13-3.55,5.23-6.77,6.29-.21.07-.28.16-.28.38,0,5.8,0,11.59,0,17.39q0,.28.29.28c4.37,0,8.74.02,13.11,0,2.13-.01,4.26-.08,6.39-.15.89-.03,1.78-.17,2.64-.43.74-.23,1.39-.59,1.84-1.25.41-.6.59-1.29.72-1.99.25-1.29.32-2.6.33-3.91.03-3.35.03-6.69.05-10.04,0-.14-.05-.19-.18-.24-.5-.19-1.02-.35-1.5-.59-3.31-1.65-5.35-4.3-5.96-7.95-.51-3.03.2-5.82,2.09-8.27,1.7-2.2,3.94-3.53,6.68-4.01C71.69.1,72.08.05,72.46,0c.41,0,.82,0,1.23,0,.36.04.72.08,1.07.14,2.61.44,4.82,1.63,6.5,3.68,2.42,2.94,3.15,6.29,2.08,9.93-1.07,3.64-3.53,6.02-7.13,7.22-.17.06-.21.13-.21.3,0,1.69,0,3.39,0,5.08-.01,2.61.04,5.23-.19,7.84-.12,1.38-.34,2.75-.81,4.06-.63,1.77-1.67,3.23-3.19,4.33-1.46,1.06-3.13,1.59-4.89,1.86-1.83.28-3.68.36-5.53.36-5.44.02-10.88.01-16.32.01-.19,0-.25.05-.25.25,0,5.83,0,11.66,0,17.49,0,.17.05.25.22.3,2.35.72,4.25,2.08,5.64,4.1,1.99,2.89,2.47,6.05,1.43,9.4-.76,2.44-2.26,4.35-4.41,5.75-2.09,1.36-4.4,1.89-6.87,1.65-2.44-.24-4.57-1.22-6.32-2.94-2.7-2.65-3.81-5.89-3.12-9.59.79-4.23,3.33-7.03,7.44-8.38.14-.04.18-.1.18-.24,0-5.86,0-11.72,0-17.57,0-.18-.06-.21-.22-.21-.64,0-1.28,0-1.93,0-7.65,0-15.31,0-22.96,0-.16,0-.26,0-.26.22,0,5.85,0,11.7,0,17.55,0,.16.05.22.2.26,1.04.29,2,.76,2.89,1.37,3.56,2.41,5.34,6.73,4.49,10.96-.5,2.52-1.76,4.6-3.75,6.22-2.28,1.86-4.92,2.62-7.83,2.35-2.45-.23-4.57-1.23-6.34-2.94-2.07-2-3.17-4.46-3.29-7.34-.08-1.92.34-3.75,1.27-5.44,1.4-2.54,3.47-4.28,6.25-5.15.22-.07.28-.16.28-.38,0-8.94,0-17.89,0-26.83,0-4.79,0-9.59,0-14.38,0-.18-.04-.27-.23-.33-1.82-.56-3.39-1.54-4.68-2.94C1.09,16.09.13,13.79.01,11.15c-.08-1.91.31-3.74,1.23-5.42C2.98,2.56,5.64.68,9.22.11,9.52.07,9.82.04,10.11,0ZM41.89,68.22c-2.74-.02-4.89,2.26-4.87,4.87.02,2.72,2.21,4.9,4.89,4.88,2.73-.02,4.9-2.22,4.87-4.94-.03-2.67-2.23-4.83-4.89-4.81ZM41.92,15.59c2.59.05,4.87-2.13,4.86-4.87,0-2.69-2.2-4.88-4.87-4.87-2.71,0-4.9,2.2-4.89,4.88,0,2.76,2.3,4.92,4.89,4.86ZM15.59,73.08c0-2.7-2.21-4.84-4.82-4.86-2.7-.02-4.89,2.09-4.94,4.8-.05,2.71,2.13,4.92,4.86,4.95,2.68.03,4.87-2.15,4.9-4.89ZM73.09,15.59c2.58.06,4.89-2.1,4.88-4.87,0-2.72-2.2-4.89-4.91-4.87-2.67.01-4.86,2.23-4.84,4.88.02,2.71,2.18,4.87,4.88,4.86ZM10.72,15.59c2.46.06,4.86-1.97,4.87-4.86.01-2.69-2.2-4.9-4.88-4.88-2.7.01-4.87,2.18-4.87,4.87,0,2.79,2.31,4.93,4.88,4.87Z"/>
  <path class="cls-1" d="M77.41,69.61c.32.52.62,1.02.93,1.52,1.67,2.72,3.34,5.45,5,8.17,1.04,1.71.23,3.84-1.66,4.39-1.24.36-2.58-.17-3.3-1.33-.76-1.23-1.51-2.47-2.27-3.7-1.69-2.76-3.39-5.53-5.07-8.3-.09-.15-.19-.21-.37-.21-.74.01-1.47.01-2.21,0-.2,0-.25.06-.25.25,0,3.45,0,6.91,0,10.36,0,.98-.34,1.79-1.11,2.39-.92.72-1.95.85-3.01.36-1.07-.49-1.64-1.36-1.71-2.55,0-.07,0-.15,0-.23,0-9.01,0-18.02,0-27.03,0-.88.27-1.64.91-2.25.58-.55,1.27-.8,2.06-.8,1.67,0,3.33,0,5,0,1.26,0,2.53,0,3.79,0,2.7.01,5.02.97,6.9,2.91,1.66,1.7,2.57,3.76,2.73,6.13.17,2.47-.5,4.69-1.98,6.66-1.08,1.44-2.48,2.48-4.16,3.14-.06.02-.13.05-.22.09ZM68.21,64.31c.07,0,.11.02.15.02,1.95,0,3.9,0,5.86,0,1.15,0,2.11-.46,2.83-1.35,1.05-1.3,1.23-2.76.53-4.26-.68-1.46-1.89-2.2-3.52-2.2-1.86,0-3.71,0-5.57,0q-.27,0-.27.28c0,2.42,0,4.83,0,7.25v.26Z"/>
</svg>